<svg version="1.1" xmlns="http://www.w3.org/2000/svg" xmlns:xlink="http://www.w3.org/1999/xlink" width="764" height="1164"><defs/><g><g><path fill="none" stroke="#000000" paint-order="fill stroke markers" d=" M 10 10 L 754 10 L 754 1154 L 10 1154 L 10 10" stroke-miterlimit="10" stroke-dasharray=""/></g><g><path fill="#ffffff" stroke="none" paint-order="stroke fill markers" d=" M 10 10 L 10 33 L 139.45166015625 33 L 150.95166015625 21.5 L 150.95166015625 10 L 10 10"/></g><g><path fill="none" stroke="#000000" paint-order="fill stroke markers" d=" M 10 10 L 10 33 L 139.45166015625 33 L 150.95166015625 21.5 L 150.95166015625 10 L 10 10 L 10 10" stroke-miterlimit="10" stroke-dasharray=""/></g><g><g><path fill="none" stroke="none"/><text fill="#000000" stroke="none" font-family="Arial" font-size="13px" font-style="normal" font-weight="normal" text-decoration="undefined" x="202.5908203125" y="27.5" text-anchor="middle" dominant-baseline="central" transform="matrix(1 0 0 1 -118 -6)">Property Booking</text></g></g><g><g><path fill="none" stroke="none"/><text fill="#000000" stroke="none" font-family="Arial" font-size="13px" font-style="normal" font-weight="bold" text-decoration="undefined" x="139.864990234375" y="27.5" text-anchor="middle" dominant-baseline="central" transform="matrix(1 0 0 1 -118 -6)">sd</text></g></g><g><path fill="#C0C0C0" stroke="none" paint-order="stroke fill markers" d=" M 241 51 C 241 45.477152000000004 245.477152 41 251 41 C 256.522848 41 261 45.477152000000004 261 51 C 261 56.522847999999996 256.522848 61 251 61 C 245.477152 61 241 56.522847999999996 241 51 Z" fill-opacity="0.2"/></g><g><path fill="#000000" stroke="none" paint-order="stroke fill markers" d=" M 234 44 C 234 38.477152000000004 238.477152 34 244 34 C 249.522848 34 254 38.477152000000004 254 44 C 254 49.522847999999996 249.522848 54 244 54 C 238.477152 54 234 49.522847999999996 234 44 Z"/></g><g><path fill="none" stroke="#000000" paint-order="fill stroke markers" d=" M 244 55 L 244 97" stroke-miterlimit="10" stroke-dasharray=""/></g><g><path fill="none" stroke="#000000" paint-order="fill stroke markers" d=" M 239.790482243984 86.83732514237585 L 244 97 L 248.209517756016 86.83732514237585" stroke-miterlimit="10" stroke-dasharray=""/></g><g><path fill="none" stroke="#000000" paint-order="fill stroke markers" d=" M 244 147 L 245 193" stroke-miterlimit="10" stroke-dasharray=""/></g><g><path fill="none" stroke="#000000" paint-order="fill stroke markers" d=" M 240.57060105042297 182.9312153193404 L 245 193 L 248.98764789217512 182.74823604017186" stroke-miterlimit="10" stroke-dasharray=""/></g><g><path fill="#C0C0C0" stroke="none" paint-order="stroke fill markers" d=" M 97 329 L 201 289 L 305 329 L 201 369 L 97 329" fill-opacity="0.2"/></g><g><path fill="#FCFBFB" stroke="none" paint-order="stroke fill markers" d=" M 90 322 L 194 282 L 298 322 L 194 362 L 90 322"/></g><g><path fill="none" stroke="#000000" paint-order="fill stroke markers" d=" M 90 322 L 194 282 L 298 322 L 194 362 L 90 322 L 90 322" stroke-miterlimit="10" stroke-dasharray=""/></g><g><path fill="none" stroke="#000000" paint-order="fill stroke markers" d=" M 235 235 L 213 281" stroke-miterlimit="10" stroke-dasharray=""/></g><g><path fill="none" stroke="#000000" paint-order="fill stroke markers" d=" M 213.5871919103502 270.01568365074917 L 213 281 L 221.18229195892008 273.648122804413" stroke-miterlimit="10" stroke-dasharray=""/></g><g><rect fill="#ffffff" stroke="none" x="231" y="319" width="163.3125" height="13" transform="matrix(1 0 0 1 -118 -6)"/></g><g><g><path fill="none" stroke="none"/><text fill="#000000" stroke="none" font-family="Arial" font-size="13px" font-style="normal" font-weight="normal" text-decoration="undefined" x="312.65625" y="325.5" text-anchor="middle" dominant-baseline="central" transform="matrix(1 0 0 1 -118 -6)">Matching Properties Found?</text></g></g><g><path fill="none" stroke="#000000" paint-order="fill stroke markers" d=" M 411 433 L 406 473" stroke-miterlimit="10" stroke-dasharray=""/></g><g><path fill="none" stroke="#000000" paint-order="fill stroke markers" d=" M 403.08351333775386 462.39367615292934 L 406 473 L 411.43753601960987 463.43792898816133" stroke-miterlimit="10" stroke-dasharray=""/></g><g><path fill="none" stroke="#000000" paint-order="fill stroke markers" d=" M 405 505 L 408 545" stroke-miterlimit="10" stroke-dasharray=""/></g><g><path fill="none" stroke="#000000" paint-order="fill stroke markers" d=" M 403.04220587213945 535.1806172604511 L 408 545 L 411.43766227466404 534.5509580302618" stroke-miterlimit="10" stroke-dasharray=""/></g><g><path fill="#C0C0C0" stroke="none" paint-order="stroke fill markers" d=" M 305 693 L 389 657 L 473 693 L 389 729 L 305 693" fill-opacity="0.2"/></g><g><path fill="#ffffff" stroke="none" paint-order="stroke fill markers" d=" M 298 686 L 382 650 L 466 686 L 382 722 L 298 686"/></g><g><path fill="none" stroke="#000000" paint-order="fill stroke markers" d=" M 298 686 L 382 650 L 466 686 L 382 722 L 298 686 L 298 686" stroke-miterlimit="10" stroke-dasharray=""/></g><g><path fill="none" stroke="#000000" paint-order="fill stroke markers" d=" M 406 577 L 390 649" stroke-miterlimit="10" stroke-dasharray=""/></g><g><path fill="none" stroke="#000000" paint-order="fill stroke markers" d=" M 388.09531694648916 638.1661556931222 L 390 649 L 396.31387047256396 639.9925009211388" stroke-miterlimit="10" stroke-dasharray=""/></g><g><rect fill="#ffffff" stroke="none" x="440" y="682" width="114.91162109375" height="13" transform="matrix(1 0 0 1 -118 -6)"/></g><g><g><path fill="none" stroke="none"/><text fill="#000000" stroke="none" font-family="Arial" font-size="13px" font-style="normal" font-weight="normal" text-decoration="undefined" x="497.455810546875" y="688.5" text-anchor="middle" dominant-baseline="central" transform="matrix(1 0 0 1 -118 -6)">Request Approved?</text></g></g><g><path fill="none" stroke="#000000" paint-order="fill stroke markers" d=" M 453 723 L 556 777" stroke-miterlimit="10" stroke-dasharray=""/></g><g><path fill="none" stroke="#000000" paint-order="fill stroke markers" d=" M 545.044695029108 776.0093976606386 L 556 777 L 548.9538911967372 768.5529679334938" stroke-miterlimit="10" stroke-dasharray=""/></g><g><rect fill="#ffffff" stroke="none" x="611" y="737" width="55.64990234375" height="13" transform="matrix(1 0 0 1 -118 -6)"/></g><g><g><path fill="none" stroke="none"/><text fill="#000000" stroke="none" font-family="Arial" font-size="13px" font-style="normal" font-weight="normal" text-decoration="undefined" x="638.824951171875" y="743.5" text-anchor="middle" dominant-baseline="central" transform="matrix(1 0 0 1 -118 -6)">Yes</text></g></g><g><path fill="#C0C0C0" stroke="none" paint-order="stroke fill markers" d=" M 481 957 L 565 889 L 649 957 L 565 1025 L 481 957" fill-opacity="0.2"/></g><g><path fill="#ffffff" stroke="none" paint-order="stroke fill markers" d=" M 474 950 L 558 882 L 642 950 L 558 1018 L 474 950"/></g><g><path fill="none" stroke="#000000" paint-order="fill stroke markers" d=" M 474 950 L 558 882 L 642 950 L 558 1018 L 474 950 L 474 950" stroke-miterlimit="10" stroke-dasharray=""/></g><g><path fill="none" stroke="#000000" paint-order="fill stroke markers" d=" M 584 809 L 571 881" stroke-miterlimit="10" stroke-dasharray=""/></g><g><path fill="none" stroke="#000000" paint-order="fill stroke markers" d=" M 568.6631944603322 870.2510772693363 L 571 881 L 576.9482651098891 871.7469928032841" stroke-miterlimit="10" stroke-dasharray=""/></g><g><rect fill="#ffffff" stroke="none" x="615" y="951" width="122.83349609375" height="13" transform="matrix(1 0 0 1 -118 -6)"/></g><g><g><path fill="none" stroke="none"/><text fill="#000000" stroke="none" font-family="Arial" font-size="13px" font-style="normal" font-weight="normal" text-decoration="undefined" x="676.416748046875" y="957.5" text-anchor="middle" dominant-baseline="central" transform="matrix(1 0 0 1 -118 -6)">Payment successful?</text></g></g><g><path fill="#C0C0C0" stroke="none" paint-order="stroke fill markers" d=" M 241 1085 C 241 1073.954304 251.7451648 1065 265 1065 C 278.2548352 1065 289 1073.954304 289 1085 C 289 1096.045696 278.2548352 1105 265 1105 C 251.7451648 1105 241 1096.045696 241 1085 Z" fill-opacity="0.2"/></g><g><path fill="none" stroke="#000000" paint-order="fill stroke markers" d=" M 234 1078 C 234 1066.954304 244.7451648 1058 258 1058 C 271.2548352 1058 282 1066.954304 282 1078 C 282 1089.045696 271.2548352 1098 258 1098 C 244.7451648 1098 234 1089.045696 234 1078 Z" stroke-miterlimit="10" stroke-dasharray=""/></g><g><path fill="#000000" stroke="none" paint-order="stroke fill markers" d=" M 239 1078 C 239 1069.715728 247.50658879999997 1063 258 1063 C 268.4934112 1063 277 1069.715728 277 1078 C 277 1086.284272 268.4934112 1093 258 1093 C 247.50658879999997 1093 239 1086.284272 239 1078 Z"/></g><g><path fill="none" stroke="#000000" paint-order="fill stroke markers" d=" M 473 952 L 418 954 L 570 809" stroke-miterlimit="10" stroke-dasharray=""/></g><g><path fill="none" stroke="#000000" paint-order="fill stroke markers" d=" M 565.5521931250764 819.0606666778789 L 570 809 L 559.7409599661477 812.9688912285192" stroke-miterlimit="10" stroke-dasharray=""/></g><g><rect fill="#ffffff" stroke="none" x="552" y="896" width="30" height="13" transform="matrix(1 0 0 1 -118 -6)"/></g><g><g><path fill="none" stroke="none"/><text fill="#000000" stroke="none" font-family="Arial" font-size="13px" font-style="normal" font-weight="normal" text-decoration="undefined" x="567" y="902.5" text-anchor="middle" dominant-baseline="central" transform="matrix(1 0 0 1 -118 -6)">No</text></g></g><g><path fill="none" stroke="#000000" paint-order="fill stroke markers" d=" M 289 363 L 376 401" stroke-miterlimit="10" stroke-dasharray=""/></g><g><path fill="none" stroke="#000000" paint-order="fill stroke markers" d=" M 365.0020081220613 400.78982233041125 L 376 401 L 368.3718634190951 393.0746273082548" stroke-miterlimit="10" stroke-dasharray=""/></g><g><rect fill="#ffffff" stroke="none" x="445" y="368" width="21.20751953125" height="13" transform="matrix(1 0 0 1 -118 -6)"/></g><g><g><path fill="none" stroke="none"/><text fill="#000000" stroke="none" font-family="Arial" font-size="13px" font-style="normal" font-weight="normal" text-decoration="undefined" x="455.603759765625" y="374.5" text-anchor="middle" dominant-baseline="central" transform="matrix(1 0 0 1 -118 -6)">Yes</text></g></g><g><path fill="none" stroke="#000000" paint-order="fill stroke markers" d=" M 473 986 L 283 1067" stroke-miterlimit="10" stroke-dasharray=""/></g><g><path fill="none" stroke="#000000" paint-order="fill stroke markers" d=" M 290.6977619779816 1059.1422356531682 L 283 1067 L 293.9994181492014 1066.8868612399801" stroke-miterlimit="10" stroke-dasharray=""/></g><g><rect fill="#ffffff" stroke="none" x="491" y="1039" width="21.20751953125" height="13" transform="matrix(1 0 0 1 -118 -6)"/></g><g><g><path fill="none" stroke="none"/><text fill="#000000" stroke="none" font-family="Arial" font-size="13px" font-style="normal" font-weight="normal" text-decoration="undefined" x="501.603759765625" y="1045.5" text-anchor="middle" dominant-baseline="central" transform="matrix(1 0 0 1 -118 -6)">Yes</text></g></g><g><path fill="none" stroke="#000000" paint-order="fill stroke markers" d=" M 370 723 L 265 1057" stroke-miterlimit="10" stroke-dasharray=""/></g><g><path fill="none" stroke="#000000" paint-order="fill stroke markers" d=" M 264.0320397653116 1046.04267126604 L 265 1057 L 272.06355020560613 1048.5675473026597" stroke-miterlimit="10" stroke-dasharray=""/></g><g><rect fill="#ffffff" stroke="none" x="410" y="893" width="16.6181640625" height="13" transform="matrix(1 0 0 1 -118 -6)"/></g><g><g><path fill="none" stroke="none"/><text fill="#000000" stroke="none" font-family="Arial" font-size="13px" font-style="normal" font-weight="normal" text-decoration="undefined" x="418.30908203125" y="899.5" text-anchor="middle" dominant-baseline="central" transform="matrix(1 0 0 1 -118 -6)">No</text></g></g><g><path fill="none" stroke="#000000" paint-order="fill stroke markers" d=" M 197 363 L 256 1057" stroke-miterlimit="10" stroke-dasharray=""/></g><g><path fill="none" stroke="#000000" paint-order="fill stroke markers" d=" M 250.9447438602075 1047.2304357640123 L 256 1057 L 259.3335192234223 1046.5172689824133" stroke-miterlimit="10" stroke-dasharray=""/></g><g><rect fill="#ffffff" stroke="none" x="324" y="707" width="16.6181640625" height="13" transform="matrix(1 0 0 1 -118 -6)"/></g><g><g><path fill="none" stroke="none"/><text fill="#000000" stroke="none" font-family="Arial" font-size="13px" font-style="normal" font-weight="normal" text-decoration="undefined" x="332.30908203125" y="713.5" text-anchor="middle" dominant-baseline="central" transform="matrix(1 0 0 1 -118 -6)">No</text></g></g><g><rect fill="#ffffff" stroke="none" x="272" y="104" width="181.9453125" height="48" transform="matrix(1 0 0 1 -118 -6)"/></g><g><path fill="none" stroke="#000000" paint-order="fill stroke markers" d=" M 154 98 L 335.9453125 98 L 335.9453125 146 L 154 146 L 154 98 Z Z" stroke-miterlimit="10" stroke-dasharray=""/></g><g><path fill="none" stroke="#000000" paint-order="fill stroke markers" d=" M 154 98 L 154 121 L 179.1708984375 121 L 190.6708984375 109.5 L 190.6708984375 98 L 154 98 L 154 98" stroke-miterlimit="10" stroke-dasharray=""/></g><g><g><path fill="none" stroke="none"/><text fill="#000000" stroke="none" font-family="Arial" font-size="13px" font-style="normal" font-weight="normal" text-decoration="undefined" x="381.30810546875" y="115.5" text-anchor="middle" dominant-baseline="central" transform="matrix(1 0 0 1 -118 -6)">FR2 - Search Properties </text></g></g><g><g><path fill="none" stroke="none"/><text fill="#000000" stroke="none" font-family="Arial" font-size="13px" font-style="normal" font-weight="bold" text-decoration="undefined" x="284.58544921875" y="115.5" text-anchor="middle" dominant-baseline="central" transform="matrix(1 0 0 1 -118 -6)">ref</text></g></g><g><rect fill="#ffffff" stroke="none" x="280" y="200" width="166.03173828125" height="40" transform="matrix(1 0 0 1 -118 -6)"/></g><g><path fill="none" stroke="#000000" paint-order="fill stroke markers" d=" M 162 194 L 328.03173828125 194 L 328.03173828125 234 L 162 234 L 162 194 Z Z" stroke-miterlimit="10" stroke-dasharray=""/></g><g><path fill="none" stroke="#000000" paint-order="fill stroke markers" d=" M 162 194 L 162 217 L 187.1708984375 217 L 198.6708984375 205.5 L 198.6708984375 194 L 162 194 L 162 194" stroke-miterlimit="10" stroke-dasharray=""/></g><g><g><path fill="none" stroke="none"/><text fill="#000000" stroke="none" font-family="Arial" font-size="13px" font-style="normal" font-weight="normal" text-decoration="undefined" x="381.351318359375" y="211.5" text-anchor="middle" dominant-baseline="central" transform="matrix(1 0 0 1 -118 -6)">FR3 - Filter Properties</text></g></g><g><g><path fill="none" stroke="none"/><text fill="#000000" stroke="none" font-family="Arial" font-size="13px" font-style="normal" font-weight="bold" text-decoration="undefined" x="292.58544921875" y="211.5" text-anchor="middle" dominant-baseline="central" transform="matrix(1 0 0 1 -118 -6)">ref</text></g></g><g><rect fill="#ffffff" stroke="none" x="432" y="408" width="198.31591796875" height="30" transform="matrix(1 0 0 1 -118 -6)"/></g><g><path fill="none" stroke="#000000" paint-order="fill stroke markers" d=" M 314 402 L 512.31591796875 402 L 512.31591796875 432 L 314 432 L 314 402 Z Z" stroke-miterlimit="10" stroke-dasharray=""/></g><g><path fill="none" stroke="#000000" paint-order="fill stroke markers" d=" M 314 402 L 314 425 L 339.1708984375 425 L 350.6708984375 413.5 L 350.6708984375 402 L 314 402 L 314 402" stroke-miterlimit="10" stroke-dasharray=""/></g><g><g><path fill="none" stroke="none"/><text fill="#000000" stroke="none" font-family="Arial" font-size="13px" font-style="normal" font-weight="normal" text-decoration="undefined" x="549.493408203125" y="419.5" text-anchor="middle" dominant-baseline="central" transform="matrix(1 0 0 1 -118 -6)">FR4 - View Property Details</text></g></g><g><g><path fill="none" stroke="none"/><text fill="#000000" stroke="none" font-family="Arial" font-size="13px" font-style="normal" font-weight="bold" text-decoration="undefined" x="444.58544921875" y="419.5" text-anchor="middle" dominant-baseline="central" transform="matrix(1 0 0 1 -118 -6)">ref</text></g></g><g><rect fill="#ffffff" stroke="none" x="424" y="480" width="197.865234375" height="30" transform="matrix(1 0 0 1 -118 -6)"/></g><g><path fill="none" stroke="#000000" paint-order="fill stroke markers" d=" M 306 474 L 503.865234375 474 L 503.865234375 504 L 306 504 L 306 474 Z Z" stroke-miterlimit="10" stroke-dasharray=""/></g><g><path fill="none" stroke="#000000" paint-order="fill stroke markers" d=" M 306 474 L 306 497 L 331.1708984375 497 L 342.6708984375 485.5 L 342.6708984375 474 L 306 474 L 306 474" stroke-miterlimit="10" stroke-dasharray=""/></g><g><g><path fill="none" stroke="none"/><text fill="#000000" stroke="none" font-family="Arial" font-size="13px" font-style="normal" font-weight="normal" text-decoration="undefined" x="541.26806640625" y="491.5" text-anchor="middle" dominant-baseline="central" transform="matrix(1 0 0 1 -118 -6)">FR5 - Send Rental Request</text></g></g><g><g><path fill="none" stroke="none"/><text fill="#000000" stroke="none" font-family="Arial" font-size="13px" font-style="normal" font-weight="bold" text-decoration="undefined" x="436.58544921875" y="491.5" text-anchor="middle" dominant-baseline="central" transform="matrix(1 0 0 1 -118 -6)">ref</text></g></g><g><rect fill="#ffffff" stroke="none" x="392" y="552" width="270.10791015625" height="30" transform="matrix(1 0 0 1 -118 -6)"/></g><g><path fill="none" stroke="#000000" paint-order="fill stroke markers" d=" M 274 546 L 544.10791015625 546 L 544.10791015625 576 L 274 576 L 274 546 Z Z" stroke-miterlimit="10" stroke-dasharray=""/></g><g><path fill="none" stroke="#000000" paint-order="fill stroke markers" d=" M 274 546 L 274 569 L 299.1708984375 569 L 310.6708984375 557.5 L 310.6708984375 546 L 274 546 L 274 546" stroke-miterlimit="10" stroke-dasharray=""/></g><g><g><path fill="none" stroke="none"/><text fill="#000000" stroke="none" font-family="Arial" font-size="13px" font-style="normal" font-weight="normal" text-decoration="undefined" x="545.389404296875" y="563.5" text-anchor="middle" dominant-baseline="central" transform="matrix(1 0 0 1 -118 -6)">FR17 - Accept or Reject Rental Request</text></g></g><g><g><path fill="none" stroke="none"/><text fill="#000000" stroke="none" font-family="Arial" font-size="13px" font-style="normal" font-weight="bold" text-decoration="undefined" x="404.58544921875" y="563.5" text-anchor="middle" dominant-baseline="central" transform="matrix(1 0 0 1 -118 -6)">ref</text></g></g><g><rect fill="#ffffff" stroke="none" x="600" y="784" width="210.84619140625" height="30" transform="matrix(1 0 0 1 -118 -6)"/></g><g><path fill="none" stroke="#000000" paint-order="fill stroke markers" d=" M 482 778 L 692.84619140625 778 L 692.84619140625 808 L 482 808 L 482 778 Z Z" stroke-miterlimit="10" stroke-dasharray=""/></g><g><path fill="none" stroke="#000000" paint-order="fill stroke markers" d=" M 482 778 L 482 801 L 507.1708984375 801 L 518.6708984375 789.5 L 518.6708984375 778 L 482 778 L 482 778" stroke-miterlimit="10" stroke-dasharray=""/></g><g><g><path fill="none" stroke="none"/><text fill="#000000" stroke="none" font-family="Arial" font-size="13px" font-style="normal" font-weight="normal" text-decoration="undefined" x="723.758544921875" y="795.5" text-anchor="middle" dominant-baseline="central" transform="matrix(1 0 0 1 -118 -6)">FR8 - Submit Rental Payment</text></g></g><g><g><path fill="none" stroke="none"/><text fill="#000000" stroke="none" font-family="Arial" font-size="13px" font-style="normal" font-weight="bold" text-decoration="undefined" x="612.58544921875" y="795.5" text-anchor="middle" dominant-baseline="central" transform="matrix(1 0 0 1 -118 -6)">ref</text></g></g></g></svg>