<svg version="1.1" xmlns="http://www.w3.org/2000/svg" xmlns:xlink="http://www.w3.org/1999/xlink" width="622.84619140625" height="1084"><defs/><g><g><path fill="#C0C0C0" stroke="none" paint-order="stroke fill markers" d=" M 161 27 C 161 21.477152000000004 165.477152 17 171 17 C 176.522848 17 181 21.477152000000004 181 27 C 181 32.522847999999996 176.522848 37 171 37 C 165.477152 37 161 32.522847999999996 161 27 Z" fill-opacity="0.2"/></g><g><path fill="#000000" stroke="none" paint-order="stroke fill markers" d=" M 154 20 C 154 14.477152000000004 158.477152 10 164 10 C 169.522848 10 174 14.477152000000004 174 20 C 174 25.522847999999996 169.522848 30 164 30 C 158.477152 30 154 25.522847999999996 154 20 Z"/></g><g><path fill="none" stroke="#000000" paint-order="fill stroke markers" d=" M 164 31 L 164 73" stroke-miterlimit="10" stroke-dasharray=""/></g><g><path fill="none" stroke="#000000" paint-order="fill stroke markers" d=" M 159.790482243984 62.837325142375846 L 164 73 L 168.209517756016 62.837325142375846" stroke-miterlimit="10" stroke-dasharray=""/></g><g><path fill="none" stroke="#000000" paint-order="fill stroke markers" d=" M 164 123 L 165 169" stroke-miterlimit="10" stroke-dasharray=""/></g><g><path fill="none" stroke="#000000" paint-order="fill stroke markers" d=" M 160.57060105042297 158.9312153193404 L 165 169 L 168.98764789217512 158.74823604017186" stroke-miterlimit="10" stroke-dasharray=""/></g><g><path fill="#C0C0C0" stroke="none" paint-order="stroke fill markers" d=" M 17 305 L 121 265 L 225 305 L 121 345 L 17 305" fill-opacity="0.2"/></g><g><path fill="#FCFBFB" stroke="none" paint-order="stroke fill markers" d=" M 10 298 L 114 258 L 218 298 L 114 338 L 10 298"/></g><g><path fill="none" stroke="#000000" paint-order="fill stroke markers" d=" M 10 298 L 114 258 L 218 298 L 114 338 L 10 298 L 10 298" stroke-miterlimit="10" stroke-dasharray=""/></g><g><path fill="none" stroke="#000000" paint-order="fill stroke markers" d=" M 155 211 L 133 257" stroke-miterlimit="10" stroke-dasharray=""/></g><g><path fill="none" stroke="#000000" paint-order="fill stroke markers" d=" M 133.5871919103502 246.01568365074917 L 133 257 L 141.18229195892008 249.648122804413" stroke-miterlimit="10" stroke-dasharray=""/></g><g><rect fill="#ffffff" stroke="none" x="231" y="319" width="163.3125" height="13" transform="matrix(1 0 0 1 -198 -30)"/></g><g><g><path fill="none" stroke="none"/><text fill="#000000" stroke="none" font-family="Arial" font-size="13px" font-style="normal" font-weight="normal" text-decoration="undefined" x="312.65625" y="325.5" text-anchor="middle" dominant-baseline="central" transform="matrix(1 0 0 1 -198 -30)">Matching Properties Found?</text></g></g><g><path fill="none" stroke="#000000" paint-order="fill stroke markers" d=" M 331 409 L 326 449" stroke-miterlimit="10" stroke-dasharray=""/></g><g><path fill="none" stroke="#000000" paint-order="fill stroke markers" d=" M 323.08351333775386 438.39367615292934 L 326 449 L 331.43753601960987 439.43792898816133" stroke-miterlimit="10" stroke-dasharray=""/></g><g><path fill="none" stroke="#000000" paint-order="fill stroke markers" d=" M 325 481 L 328 521" stroke-miterlimit="10" stroke-dasharray=""/></g><g><path fill="none" stroke="#000000" paint-order="fill stroke markers" d=" M 323.04220587213945 511.1806172604511 L 328 521 L 331.43766227466404 510.55095803026177" stroke-miterlimit="10" stroke-dasharray=""/></g><g><path fill="#C0C0C0" stroke="none" paint-order="stroke fill markers" d=" M 225 669 L 309 633 L 393 669 L 309 705 L 225 669" fill-opacity="0.2"/></g><g><path fill="#ffffff" stroke="none" paint-order="stroke fill markers" d=" M 218 662 L 302 626 L 386 662 L 302 698 L 218 662"/></g><g><path fill="none" stroke="#000000" paint-order="fill stroke markers" d=" M 218 662 L 302 626 L 386 662 L 302 698 L 218 662 L 218 662" stroke-miterlimit="10" stroke-dasharray=""/></g><g><path fill="none" stroke="#000000" paint-order="fill stroke markers" d=" M 326 553 L 310 625" stroke-miterlimit="10" stroke-dasharray=""/></g><g><path fill="none" stroke="#000000" paint-order="fill stroke markers" d=" M 308.09531694648916 614.1661556931222 L 310 625 L 316.31387047256396 615.9925009211388" stroke-miterlimit="10" stroke-dasharray=""/></g><g><rect fill="#ffffff" stroke="none" x="440" y="682" width="114.91162109375" height="13" transform="matrix(1 0 0 1 -198 -30)"/></g><g><g><path fill="none" stroke="none"/><text fill="#000000" stroke="none" font-family="Arial" font-size="13px" font-style="normal" font-weight="normal" text-decoration="undefined" x="497.455810546875" y="688.5" text-anchor="middle" dominant-baseline="central" transform="matrix(1 0 0 1 -198 -30)">Request Approved?</text></g></g><g><path fill="none" stroke="#000000" paint-order="fill stroke markers" d=" M 373 699 L 476 753" stroke-miterlimit="10" stroke-dasharray=""/></g><g><path fill="none" stroke="#000000" paint-order="fill stroke markers" d=" M 465.04469502910797 752.0093976606386 L 476 753 L 468.95389119673723 744.5529679334938" stroke-miterlimit="10" stroke-dasharray=""/></g><g><rect fill="#ffffff" stroke="none" x="611" y="737" width="55.64990234375" height="13" transform="matrix(1 0 0 1 -198 -30)"/></g><g><g><path fill="none" stroke="none"/><text fill="#000000" stroke="none" font-family="Arial" font-size="13px" font-style="normal" font-weight="normal" text-decoration="undefined" x="638.824951171875" y="743.5" text-anchor="middle" dominant-baseline="central" transform="matrix(1 0 0 1 -198 -30)">Yes</text></g></g><g><path fill="#C0C0C0" stroke="none" paint-order="stroke fill markers" d=" M 401 933 L 485 865 L 569 933 L 485 1001 L 401 933" fill-opacity="0.2"/></g><g><path fill="#ffffff" stroke="none" paint-order="stroke fill markers" d=" M 394 926 L 478 858 L 562 926 L 478 994 L 394 926"/></g><g><path fill="none" stroke="#000000" paint-order="fill stroke markers" d=" M 394 926 L 478 858 L 562 926 L 478 994 L 394 926 L 394 926" stroke-miterlimit="10" stroke-dasharray=""/></g><g><path fill="none" stroke="#000000" paint-order="fill stroke markers" d=" M 504 785 L 491 857" stroke-miterlimit="10" stroke-dasharray=""/></g><g><path fill="none" stroke="#000000" paint-order="fill stroke markers" d=" M 488.6631944603322 846.2510772693363 L 491 857 L 496.9482651098891 847.7469928032841" stroke-miterlimit="10" stroke-dasharray=""/></g><g><rect fill="#ffffff" stroke="none" x="615" y="951" width="122.83349609375" height="13" transform="matrix(1 0 0 1 -198 -30)"/></g><g><g><path fill="none" stroke="none"/><text fill="#000000" stroke="none" font-family="Arial" font-size="13px" font-style="normal" font-weight="normal" text-decoration="undefined" x="676.416748046875" y="957.5" text-anchor="middle" dominant-baseline="central" transform="matrix(1 0 0 1 -198 -30)">Payment successful?</text></g></g><g><path fill="#C0C0C0" stroke="none" paint-order="stroke fill markers" d=" M 161 1061 C 161 1049.954304 171.7451648 1041 185 1041 C 198.2548352 1041 209 1049.954304 209 1061 C 209 1072.045696 198.2548352 1081 185 1081 C 171.7451648 1081 161 1072.045696 161 1061 Z" fill-opacity="0.2"/></g><g><path fill="none" stroke="#000000" paint-order="fill stroke markers" d=" M 154 1054 C 154 1042.954304 164.7451648 1034 178 1034 C 191.2548352 1034 202 1042.954304 202 1054 C 202 1065.045696 191.2548352 1074 178 1074 C 164.7451648 1074 154 1065.045696 154 1054 Z" stroke-miterlimit="10" stroke-dasharray=""/></g><g><path fill="#000000" stroke="none" paint-order="stroke fill markers" d=" M 159 1054 C 159 1045.715728 167.50658879999997 1039 178 1039 C 188.49341120000003 1039 197 1045.715728 197 1054 C 197 1062.284272 188.49341120000003 1069 178 1069 C 167.50658879999997 1069 159 1062.284272 159 1054 Z"/></g><g><path fill="none" stroke="#000000" paint-order="fill stroke markers" d=" M 393 928 L 338 930 L 490 785" stroke-miterlimit="10" stroke-dasharray=""/></g><g><path fill="none" stroke="#000000" paint-order="fill stroke markers" d=" M 485.5521931250764 795.0606666778789 L 490 785 L 479.74095996614767 788.9688912285192" stroke-miterlimit="10" stroke-dasharray=""/></g><g><rect fill="#ffffff" stroke="none" x="552" y="896" width="30" height="13" transform="matrix(1 0 0 1 -198 -30)"/></g><g><g><path fill="none" stroke="none"/><text fill="#000000" stroke="none" font-family="Arial" font-size="13px" font-style="normal" font-weight="normal" text-decoration="undefined" x="567" y="902.5" text-anchor="middle" dominant-baseline="central" transform="matrix(1 0 0 1 -198 -30)">No</text></g></g><g><path fill="none" stroke="#000000" paint-order="fill stroke markers" d=" M 209 339 L 296 377" stroke-miterlimit="10" stroke-dasharray=""/></g><g><path fill="none" stroke="#000000" paint-order="fill stroke markers" d=" M 285.0020081220613 376.78982233041125 L 296 377 L 288.3718634190951 369.0746273082548" stroke-miterlimit="10" stroke-dasharray=""/></g><g><rect fill="#ffffff" stroke="none" x="445" y="368" width="21.20751953125" height="13" transform="matrix(1 0 0 1 -198 -30)"/></g><g><g><path fill="none" stroke="none"/><text fill="#000000" stroke="none" font-family="Arial" font-size="13px" font-style="normal" font-weight="normal" text-decoration="undefined" x="455.603759765625" y="374.5" text-anchor="middle" dominant-baseline="central" transform="matrix(1 0 0 1 -198 -30)">Yes</text></g></g><g><path fill="none" stroke="#000000" paint-order="fill stroke markers" d=" M 393 962 L 203 1043" stroke-miterlimit="10" stroke-dasharray=""/></g><g><path fill="none" stroke="#000000" paint-order="fill stroke markers" d=" M 210.6977619779816 1035.1422356531682 L 203 1043 L 213.9994181492014 1042.8868612399801" stroke-miterlimit="10" stroke-dasharray=""/></g><g><rect fill="#ffffff" stroke="none" x="491" y="1039" width="21.20751953125" height="13" transform="matrix(1 0 0 1 -198 -30)"/></g><g><g><path fill="none" stroke="none"/><text fill="#000000" stroke="none" font-family="Arial" font-size="13px" font-style="normal" font-weight="normal" text-decoration="undefined" x="501.603759765625" y="1045.5" text-anchor="middle" dominant-baseline="central" transform="matrix(1 0 0 1 -198 -30)">Yes</text></g></g><g><path fill="none" stroke="#000000" paint-order="fill stroke markers" d=" M 290 699 L 185 1033" stroke-miterlimit="10" stroke-dasharray=""/></g><g><path fill="none" stroke="#000000" paint-order="fill stroke markers" d=" M 184.0320397653116 1022.0426712660401 L 185 1033 L 192.06355020560613 1024.5675473026597" stroke-miterlimit="10" stroke-dasharray=""/></g><g><rect fill="#ffffff" stroke="none" x="410" y="893" width="16.6181640625" height="13" transform="matrix(1 0 0 1 -198 -30)"/></g><g><g><path fill="none" stroke="none"/><text fill="#000000" stroke="none" font-family="Arial" font-size="13px" font-style="normal" font-weight="normal" text-decoration="undefined" x="418.30908203125" y="899.5" text-anchor="middle" dominant-baseline="central" transform="matrix(1 0 0 1 -198 -30)">No</text></g></g><g><path fill="none" stroke="#000000" paint-order="fill stroke markers" d=" M 117 339 L 176 1033" stroke-miterlimit="10" stroke-dasharray=""/></g><g><path fill="none" stroke="#000000" paint-order="fill stroke markers" d=" M 170.9447438602075 1023.2304357640123 L 176 1033 L 179.3335192234223 1022.5172689824133" stroke-miterlimit="10" stroke-dasharray=""/></g><g><rect fill="#ffffff" stroke="none" x="324" y="707" width="16.6181640625" height="13" transform="matrix(1 0 0 1 -198 -30)"/></g><g><g><path fill="none" stroke="none"/><text fill="#000000" stroke="none" font-family="Arial" font-size="13px" font-style="normal" font-weight="normal" text-decoration="undefined" x="332.30908203125" y="713.5" text-anchor="middle" dominant-baseline="central" transform="matrix(1 0 0 1 -198 -30)">No</text></g></g><g><rect fill="#ffffff" stroke="none" x="272" y="104" width="181.9453125" height="48" transform="matrix(1 0 0 1 -198 -30)"/></g><g><path fill="none" stroke="#000000" paint-order="fill stroke markers" d=" M 74 74 L 255.9453125 74 L 255.9453125 122 L 74 122 L 74 74 Z Z" stroke-miterlimit="10" stroke-dasharray=""/></g><g><path fill="none" stroke="#000000" paint-order="fill stroke markers" d=" M 74 74 L 74 97 L 99.1708984375 97 L 110.6708984375 85.5 L 110.6708984375 74 L 74 74 L 74 74" stroke-miterlimit="10" stroke-dasharray=""/></g><g><g><path fill="none" stroke="none"/><text fill="#000000" stroke="none" font-family="Arial" font-size="13px" font-style="normal" font-weight="normal" text-decoration="undefined" x="381.30810546875" y="115.5" text-anchor="middle" dominant-baseline="central" transform="matrix(1 0 0 1 -198 -30)">FR2 - Search Properties </text></g></g><g><g><path fill="none" stroke="none"/><text fill="#000000" stroke="none" font-family="Arial" font-size="13px" font-style="normal" font-weight="bold" text-decoration="undefined" x="284.58544921875" y="115.5" text-anchor="middle" dominant-baseline="central" transform="matrix(1 0 0 1 -198 -30)">ref</text></g></g><g><rect fill="#ffffff" stroke="none" x="280" y="200" width="166.03173828125" height="40" transform="matrix(1 0 0 1 -198 -30)"/></g><g><path fill="none" stroke="#000000" paint-order="fill stroke markers" d=" M 82 170 L 248.03173828125 170 L 248.03173828125 210 L 82 210 L 82 170 Z Z" stroke-miterlimit="10" stroke-dasharray=""/></g><g><path fill="none" stroke="#000000" paint-order="fill stroke markers" d=" M 82 170 L 82 193 L 107.1708984375 193 L 118.6708984375 181.5 L 118.6708984375 170 L 82 170 L 82 170" stroke-miterlimit="10" stroke-dasharray=""/></g><g><g><path fill="none" stroke="none"/><text fill="#000000" stroke="none" font-family="Arial" font-size="13px" font-style="normal" font-weight="normal" text-decoration="undefined" x="381.351318359375" y="211.5" text-anchor="middle" dominant-baseline="central" transform="matrix(1 0 0 1 -198 -30)">FR3 - Filter Properties</text></g></g><g><g><path fill="none" stroke="none"/><text fill="#000000" stroke="none" font-family="Arial" font-size="13px" font-style="normal" font-weight="bold" text-decoration="undefined" x="292.58544921875" y="211.5" text-anchor="middle" dominant-baseline="central" transform="matrix(1 0 0 1 -198 -30)">ref</text></g></g><g><rect fill="#ffffff" stroke="none" x="432" y="408" width="198.31591796875" height="30" transform="matrix(1 0 0 1 -198 -30)"/></g><g><path fill="none" stroke="#000000" paint-order="fill stroke markers" d=" M 234 378 L 432.31591796875 378 L 432.31591796875 408 L 234 408 L 234 378 Z Z" stroke-miterlimit="10" stroke-dasharray=""/></g><g><path fill="none" stroke="#000000" paint-order="fill stroke markers" d=" M 234 378 L 234 401 L 259.1708984375 401 L 270.6708984375 389.5 L 270.6708984375 378 L 234 378 L 234 378" stroke-miterlimit="10" stroke-dasharray=""/></g><g><g><path fill="none" stroke="none"/><text fill="#000000" stroke="none" font-family="Arial" font-size="13px" font-style="normal" font-weight="normal" text-decoration="undefined" x="549.493408203125" y="419.5" text-anchor="middle" dominant-baseline="central" transform="matrix(1 0 0 1 -198 -30)">FR4 - View Property Details</text></g></g><g><g><path fill="none" stroke="none"/><text fill="#000000" stroke="none" font-family="Arial" font-size="13px" font-style="normal" font-weight="bold" text-decoration="undefined" x="444.58544921875" y="419.5" text-anchor="middle" dominant-baseline="central" transform="matrix(1 0 0 1 -198 -30)">ref</text></g></g><g><rect fill="#ffffff" stroke="none" x="424" y="480" width="197.865234375" height="30" transform="matrix(1 0 0 1 -198 -30)"/></g><g><path fill="none" stroke="#000000" paint-order="fill stroke markers" d=" M 226 450 L 423.865234375 450 L 423.865234375 480 L 226 480 L 226 450 Z Z" stroke-miterlimit="10" stroke-dasharray=""/></g><g><path fill="none" stroke="#000000" paint-order="fill stroke markers" d=" M 226 450 L 226 473 L 251.1708984375 473 L 262.6708984375 461.5 L 262.6708984375 450 L 226 450 L 226 450" stroke-miterlimit="10" stroke-dasharray=""/></g><g><g><path fill="none" stroke="none"/><text fill="#000000" stroke="none" font-family="Arial" font-size="13px" font-style="normal" font-weight="normal" text-decoration="undefined" x="541.26806640625" y="491.5" text-anchor="middle" dominant-baseline="central" transform="matrix(1 0 0 1 -198 -30)">FR5 - Send Rental Request</text></g></g><g><g><path fill="none" stroke="none"/><text fill="#000000" stroke="none" font-family="Arial" font-size="13px" font-style="normal" font-weight="bold" text-decoration="undefined" x="436.58544921875" y="491.5" text-anchor="middle" dominant-baseline="central" transform="matrix(1 0 0 1 -198 -30)">ref</text></g></g><g><rect fill="#ffffff" stroke="none" x="392" y="552" width="270.10791015625" height="30" transform="matrix(1 0 0 1 -198 -30)"/></g><g><path fill="none" stroke="#000000" paint-order="fill stroke markers" d=" M 194 522 L 464.10791015625 522 L 464.10791015625 552 L 194 552 L 194 522 Z Z" stroke-miterlimit="10" stroke-dasharray=""/></g><g><path fill="none" stroke="#000000" paint-order="fill stroke markers" d=" M 194 522 L 194 545 L 219.1708984375 545 L 230.6708984375 533.5 L 230.6708984375 522 L 194 522 L 194 522" stroke-miterlimit="10" stroke-dasharray=""/></g><g><g><path fill="none" stroke="none"/><text fill="#000000" stroke="none" font-family="Arial" font-size="13px" font-style="normal" font-weight="normal" text-decoration="undefined" x="545.389404296875" y="563.5" text-anchor="middle" dominant-baseline="central" transform="matrix(1 0 0 1 -198 -30)">FR17 - Accept or Reject Rental Request</text></g></g><g><g><path fill="none" stroke="none"/><text fill="#000000" stroke="none" font-family="Arial" font-size="13px" font-style="normal" font-weight="bold" text-decoration="undefined" x="404.58544921875" y="563.5" text-anchor="middle" dominant-baseline="central" transform="matrix(1 0 0 1 -198 -30)">ref</text></g></g><g><rect fill="#ffffff" stroke="none" x="600" y="784" width="210.84619140625" height="30" transform="matrix(1 0 0 1 -198 -30)"/></g><g><path fill="none" stroke="#000000" paint-order="fill stroke markers" d=" M 402 754 L 612.84619140625 754 L 612.84619140625 784 L 402 784 L 402 754 Z Z" stroke-miterlimit="10" stroke-dasharray=""/></g><g><path fill="none" stroke="#000000" paint-order="fill stroke markers" d=" M 402 754 L 402 777 L 427.1708984375 777 L 438.6708984375 765.5 L 438.6708984375 754 L 402 754 L 402 754" stroke-miterlimit="10" stroke-dasharray=""/></g><g><g><path fill="none" stroke="none"/><text fill="#000000" stroke="none" font-family="Arial" font-size="13px" font-style="normal" font-weight="normal" text-decoration="undefined" x="723.758544921875" y="795.5" text-anchor="middle" dominant-baseline="central" transform="matrix(1 0 0 1 -198 -30)">FR8 - Submit Rental Payment</text></g></g><g><g><path fill="none" stroke="none"/><text fill="#000000" stroke="none" font-family="Arial" font-size="13px" font-style="normal" font-weight="bold" text-decoration="undefined" x="612.58544921875" y="795.5" text-anchor="middle" dominant-baseline="central" transform="matrix(1 0 0 1 -198 -30)">ref</text></g></g></g></svg>