<svg version="1.1" xmlns="http://www.w3.org/2000/svg" xmlns:xlink="http://www.w3.org/1999/xlink" width="1600.79541015625" height="1540"><defs/><g><g><rect fill="#C0C0C0" stroke="none" x="143" y="7" width="1344" height="1400" transform="matrix(1 0 0 1 2 10)" fill-opacity="0.2"/></g><g><rect fill="#ffffff" stroke="none" x="136" y="0" width="1344" height="1400" transform="matrix(1 0 0 1 2 10)"/></g><g><path fill="none" stroke="#000000" paint-order="fill stroke markers" d=" M 138 10 L 1482 10 L 1482 1410 L 138 1410 L 138 10 Z Z" stroke-miterlimit="10" stroke-dasharray=""/></g><g><g><path fill="none" stroke="none"/><text fill="#000000" stroke="none" font-family="Arial" font-size="13px" font-style="normal" font-weight="bold" text-decoration="undefined" x="808.5" y="13.5" text-anchor="middle" dominant-baseline="central" transform="matrix(1 0 0 1 2 10)">Property Rental System</text></g></g><g><path fill="#ffffff" stroke="none" paint-order="stroke fill markers" d=" M 48.774990234375 299.85 C 48.774990234375 294.96227952000004 52.732792602375 291 57.614990234375 291 C 62.497187866375 291 66.454990234375 294.96227952000004 66.454990234375 299.85 C 66.454990234375 304.73772048 62.497187866375 308.7 57.614990234375 308.7 C 52.732792602375 308.7 48.774990234375 304.73772048 48.774990234375 299.85 Z"/></g><g><path fill="none" stroke="#000000" paint-order="fill stroke markers" d=" M 48.774990234375 299.85 C 48.774990234375 294.96227952000004 52.732792602375 291 57.614990234375 291 C 62.497187866375 291 66.454990234375 294.96227952000004 66.454990234375 299.85 C 66.454990234375 304.73772048 62.497187866375 308.7 57.614990234375 308.7 C 52.732792602375 308.7 48.774990234375 304.73772048 48.774990234375 299.85 Z" stroke-miterlimit="10" stroke-dasharray=""/></g><g><path fill="none" stroke="#000000" paint-order="fill stroke markers" d=" M 57.614990234375 308.7 L 57.614990234375 326.3" stroke-miterlimit="10" stroke-dasharray=""/></g><g><path fill="none" stroke="#000000" paint-order="fill stroke markers" d=" M 48.254990234375 315.3 L 66.974990234375 315.3" stroke-miterlimit="10" stroke-dasharray=""/></g><g><path fill="none" stroke="#000000" paint-order="fill stroke markers" d=" M 57.614990234375 326.3 L 44.614990234375 344" stroke-miterlimit="10" stroke-dasharray=""/></g><g><path fill="none" stroke="#000000" paint-order="fill stroke markers" d=" M 57.614990234375 326.3 L 70.614990234375 344" stroke-miterlimit="10" stroke-dasharray=""/></g><g><g><path fill="none" stroke="none"/><text fill="#000000" stroke="none" font-family="Arial" font-size="13px" font-style="normal" font-weight="bold" text-decoration="undefined" x="56.114990234375" y="348.5" text-anchor="middle" dominant-baseline="central" transform="matrix(1 0 0 1 2 10)">Administrator</text></g></g><g><path fill="#C0C0C0" stroke="none" paint-order="stroke fill markers" d=" M 169 90.5 C 169 80.835016 249.8125936 73 349.5 73 C 449.1874064 73 530 80.835016 530 90.5 C 530 100.164984 449.1874064 108 349.5 108 C 249.8125936 108 169 100.164984 169 90.5 Z" fill-opacity="0.2"/></g><g><path fill="#ffffff" stroke="none" paint-order="stroke fill markers" d=" M 162 83.5 C 162 73.835016 242.8125936 66 342.5 66 C 442.1874064 66 523 73.835016 523 83.5 C 523 93.164984 442.1874064 101 342.5 101 C 242.8125936 101 162 93.164984 162 83.5 Z"/></g><g><path fill="none" stroke="#000000" paint-order="fill stroke markers" d=" M 162 83.5 C 162 73.835016 242.8125936 66 342.5 66 C 442.1874064 66 523 73.835016 523 83.5 C 523 93.164984 442.1874064 101 342.5 101 C 242.8125936 101 162 93.164984 162 83.5 Z" stroke-miterlimit="10" stroke-dasharray=""/></g><g><g><path fill="none" stroke="none"/><text fill="#000000" stroke="none" font-family="Arial" font-size="13px" font-style="normal" font-weight="bold" text-decoration="undefined" x="340.5" y="74.5" text-anchor="middle" dominant-baseline="central" transform="matrix(1 0 0 1 2 10)">Manages Disputes and System Settings</text></g></g><g><path fill="#C0C0C0" stroke="none" paint-order="stroke fill markers" d=" M 185 146.5 C 185 136.835016 246.78469760000002 129 323 129 C 399.2153024 129 461 136.835016 461 146.5 C 461 156.164984 399.2153024 164 323 164 C 246.78469760000002 164 185 156.164984 185 146.5 Z" fill-opacity="0.2"/></g><g><path fill="#ffffff" stroke="none" paint-order="stroke fill markers" d=" M 178 139.5 C 178 129.835016 239.78469760000002 122 316 122 C 392.2153024 122 454 129.835016 454 139.5 C 454 149.164984 392.2153024 157 316 157 C 239.78469760000002 157 178 149.164984 178 139.5 Z"/></g><g><path fill="none" stroke="#000000" paint-order="fill stroke markers" d=" M 178 139.5 C 178 129.835016 239.78469760000002 122 316 122 C 392.2153024 122 454 129.835016 454 139.5 C 454 149.164984 392.2153024 157 316 157 C 239.78469760000002 157 178 149.164984 178 139.5 Z" stroke-miterlimit="10" stroke-dasharray=""/></g><g><g><path fill="none" stroke="none"/><text fill="#000000" stroke="none" font-family="Arial" font-size="13px" font-style="normal" font-weight="bold" text-decoration="undefined" x="314" y="130.5" text-anchor="middle" dominant-baseline="central" transform="matrix(1 0 0 1 2 10)">Remove Inappropiate Listings</text></g></g><g><path fill="none" stroke="#000000" paint-order="fill stroke markers" d=" M 104 289 L 320 102" stroke-miterlimit="10" stroke-dasharray=""/></g><g><path fill="none" stroke="#000000" paint-order="fill stroke markers" d=" M 315.07191616960466 111.83432711275132 L 320 102 L 309.56139911543846 105.46923789510485" stroke-miterlimit="10" stroke-dasharray=""/></g><g><path fill="none" stroke="#000000" paint-order="fill stroke markers" d=" M 106 294 L 290 158" stroke-miterlimit="10" stroke-dasharray=""/></g><g><path fill="none" stroke="#000000" paint-order="fill stroke markers" d=" M 284.3295190716684 167.42579683853987 L 290 158 L 279.3253196203695 160.65540934560602" stroke-miterlimit="10" stroke-dasharray=""/></g><g><path fill="#C0C0C0" stroke="none" paint-order="stroke fill markers" d=" M 233 202.5 C 233 192.835016 321.1998944 185 430 185 C 538.8001056 185 627 192.835016 627 202.5 C 627 212.164984 538.8001056 220 430 220 C 321.1998944 220 233 212.164984 233 202.5 Z" fill-opacity="0.2"/></g><g><path fill="#ffffff" stroke="none" paint-order="stroke fill markers" d=" M 226 195.5 C 226 185.835016 314.1998944 178 423 178 C 531.8001056 178 620 185.835016 620 195.5 C 620 205.164984 531.8001056 213 423 213 C 314.1998944 213 226 205.164984 226 195.5 Z"/></g><g><path fill="none" stroke="#000000" paint-order="fill stroke markers" d=" M 226 195.5 C 226 185.835016 314.1998944 178 423 178 C 531.8001056 178 620 185.835016 620 195.5 C 620 205.164984 531.8001056 213 423 213 C 314.1998944 213 226 205.164984 226 195.5 Z" stroke-miterlimit="10" stroke-dasharray=""/></g><g><g><path fill="none" stroke="none"/><text fill="#000000" stroke="none" font-family="Arial" font-size="13px" font-style="normal" font-weight="bold" text-decoration="undefined" x="421" y="186.5" text-anchor="middle" dominant-baseline="central" transform="matrix(1 0 0 1 2 10)">View System Reports and Property Listings</text></g></g><g><path fill="#C0C0C0" stroke="none" paint-order="stroke fill markers" d=" M 313 266.5 C 313 256.835016 371.4268336 249 443.5 249 C 515.5731664 249 574 256.835016 574 266.5 C 574 276.164984 515.5731664 284 443.5 284 C 371.4268336 284 313 276.164984 313 266.5 Z" fill-opacity="0.2"/></g><g><path fill="#ffffff" stroke="none" paint-order="stroke fill markers" d=" M 306 259.5 C 306 249.835016 364.4268336 242 436.5 242 C 508.5731664 242 567 249.835016 567 259.5 C 567 269.164984 508.5731664 277 436.5 277 C 364.4268336 277 306 269.164984 306 259.5 Z"/></g><g><path fill="none" stroke="#000000" paint-order="fill stroke markers" d=" M 306 259.5 C 306 249.835016 364.4268336 242 436.5 242 C 508.5731664 242 567 249.835016 567 259.5 C 567 269.164984 508.5731664 277 436.5 277 C 364.4268336 277 306 269.164984 306 259.5 Z" stroke-miterlimit="10" stroke-dasharray=""/></g><g><g><path fill="none" stroke="none"/><text fill="#000000" stroke="none" font-family="Arial" font-size="13px" font-style="normal" font-weight="bold" text-decoration="undefined" x="434.5" y="250.5" text-anchor="middle" dominant-baseline="central" transform="matrix(1 0 0 1 2 10)">Monitor Rental Transactions</text></g></g><g><path fill="#C0C0C0" stroke="none" paint-order="stroke fill markers" d=" M 305 322.5 C 305 312.835016 348.2045168 305 401.5 305 C 454.7954832 305 498 312.835016 498 322.5 C 498 332.164984 454.7954832 340 401.5 340 C 348.2045168 340 305 332.164984 305 322.5 Z" fill-opacity="0.2"/></g><g><path fill="#ffffff" stroke="none" paint-order="stroke fill markers" d=" M 298 315.5 C 298 305.835016 341.2045168 298 394.5 298 C 447.7954832 298 491 305.835016 491 315.5 C 491 325.164984 447.7954832 333 394.5 333 C 341.2045168 333 298 325.164984 298 315.5 Z"/></g><g><path fill="none" stroke="#000000" paint-order="fill stroke markers" d=" M 298 315.5 C 298 305.835016 341.2045168 298 394.5 298 C 447.7954832 298 491 305.835016 491 315.5 C 491 325.164984 447.7954832 333 394.5 333 C 341.2045168 333 298 325.164984 298 315.5 Z" stroke-miterlimit="10" stroke-dasharray=""/></g><g><g><path fill="none" stroke="none"/><text fill="#000000" stroke="none" font-family="Arial" font-size="13px" font-style="normal" font-weight="bold" text-decoration="undefined" x="392.5" y="306.5" text-anchor="middle" dominant-baseline="central" transform="matrix(1 0 0 1 2 10)">Delete User Account</text></g></g><g><path fill="#C0C0C0" stroke="none" paint-order="stroke fill markers" d=" M 321 362.5 C 321 352.835016 359.7273648 345 407.5 345 C 455.2726352 345 494 352.835016 494 362.5 C 494 372.164984 455.2726352 380 407.5 380 C 359.7273648 380 321 372.164984 321 362.5 Z" fill-opacity="0.2"/></g><g><path fill="#ffffff" stroke="none" paint-order="stroke fill markers" d=" M 314 355.5 C 314 345.835016 352.7273648 338 400.5 338 C 448.2726352 338 487 345.835016 487 355.5 C 487 365.164984 448.2726352 373 400.5 373 C 352.7273648 373 314 365.164984 314 355.5 Z"/></g><g><path fill="none" stroke="#000000" paint-order="fill stroke markers" d=" M 314 355.5 C 314 345.835016 352.7273648 338 400.5 338 C 448.2726352 338 487 345.835016 487 355.5 C 487 365.164984 448.2726352 373 400.5 373 C 352.7273648 373 314 365.164984 314 355.5 Z" stroke-miterlimit="10" stroke-dasharray=""/></g><g><g><path fill="none" stroke="none"/><text fill="#000000" stroke="none" font-family="Arial" font-size="13px" font-style="normal" font-weight="bold" text-decoration="undefined" x="398.5" y="346.5" text-anchor="middle" dominant-baseline="central" transform="matrix(1 0 0 1 2 10)">Edit User Account</text></g></g><g><path fill="#C0C0C0" stroke="none" paint-order="stroke fill markers" d=" M 233 402.5 C 233 392.835016 303.9628592 385 391.5 385 C 479.0371408 385 550 392.835016 550 402.5 C 550 412.164984 479.0371408 420 391.5 420 C 303.9628592 420 233 412.164984 233 402.5 Z" fill-opacity="0.2"/></g><g><path fill="#ffffff" stroke="none" paint-order="stroke fill markers" d=" M 226 395.5 C 226 385.835016 296.9628592 378 384.5 378 C 472.0371408 378 543 385.835016 543 395.5 C 543 405.164984 472.0371408 413 384.5 413 C 296.9628592 413 226 405.164984 226 395.5 Z"/></g><g><path fill="none" stroke="#000000" paint-order="fill stroke markers" d=" M 226 395.5 C 226 385.835016 296.9628592 378 384.5 378 C 472.0371408 378 543 385.835016 543 395.5 C 543 405.164984 472.0371408 413 384.5 413 C 296.9628592 413 226 405.164984 226 395.5 Z" stroke-miterlimit="10" stroke-dasharray=""/></g><g><g><path fill="none" stroke="none"/><text fill="#000000" stroke="none" font-family="Arial" font-size="13px" font-style="normal" font-weight="bold" text-decoration="undefined" x="382.5" y="386.5" text-anchor="middle" dominant-baseline="central" transform="matrix(1 0 0 1 2 10)">Verify and approve property listing</text></g></g><g><path fill="none" stroke="#000000" paint-order="fill stroke markers" d=" M 106 312 L 371 214" stroke-miterlimit="10" stroke-dasharray=""/></g><g><path fill="none" stroke="#000000" paint-order="fill stroke markers" d=" M 362.9283146548647 221.47314496642 L 371 214 L 360.0081450743051 213.57676803939646" stroke-miterlimit="10" stroke-dasharray=""/></g><g><path fill="none" stroke="#000000" paint-order="fill stroke markers" d=" M 106 321 L 335 278" stroke-miterlimit="10" stroke-dasharray=""/></g><g><path fill="none" stroke="#000000" paint-order="fill stroke markers" d=" M 325.7887402904441 284.0127110826242 L 335 278 L 324.23502701626353 275.73828457594163" stroke-miterlimit="10" stroke-dasharray=""/></g><g><path fill="none" stroke="#000000" paint-order="fill stroke markers" d=" M 106 328 L 297 319" stroke-miterlimit="10" stroke-dasharray=""/></g><g><path fill="none" stroke="#000000" paint-order="fill stroke markers" d=" M 287.0467230543992 323.683191010857 L 297 319 L 286.6504542553691 315.2734864981068" stroke-miterlimit="10" stroke-dasharray=""/></g><g><path fill="none" stroke="#000000" paint-order="fill stroke markers" d=" M 106 334 L 313 349" stroke-miterlimit="10" stroke-dasharray=""/></g><g><path fill="none" stroke="#000000" paint-order="fill stroke markers" d=" M 302.5596628272801 352.46400919743616 L 313 349 L 303.1681423936961 344.06699118089546" stroke-miterlimit="10" stroke-dasharray=""/></g><g><path fill="none" stroke="#000000" paint-order="fill stroke markers" d=" M 106 340 L 293 377" stroke-miterlimit="10" stroke-dasharray=""/></g><g><path fill="none" stroke="#000000" paint-order="fill stroke markers" d=" M 282.2135383036122 379.15690613434134 L 293 377 L 283.84765683549966 370.8979827434509" stroke-miterlimit="10" stroke-dasharray=""/></g><g><path fill="#C0C0C0" stroke="none" paint-order="stroke fill markers" d=" M 209 458.5 C 209 448.835016 257.3532416 441 317 441 C 376.6467584 441 425 448.835016 425 458.5 C 425 468.164984 376.6467584 476 317 476 C 257.3532416 476 209 468.164984 209 458.5 Z" fill-opacity="0.2"/></g><g><path fill="#ffffff" stroke="none" paint-order="stroke fill markers" d=" M 202 451.5 C 202 441.835016 250.3532416 434 310 434 C 369.6467584 434 418 441.835016 418 451.5 C 418 461.164984 369.6467584 469 310 469 C 250.3532416 469 202 461.164984 202 451.5 Z"/></g><g><path fill="none" stroke="#000000" paint-order="fill stroke markers" d=" M 202 451.5 C 202 441.835016 250.3532416 434 310 434 C 369.6467584 434 418 441.835016 418 451.5 C 418 461.164984 369.6467584 469 310 469 C 250.3532416 469 202 461.164984 202 451.5 Z" stroke-miterlimit="10" stroke-dasharray=""/></g><g><g><path fill="none" stroke="none"/><text fill="#000000" stroke="none" font-family="Arial" font-size="13px" font-style="normal" font-weight="bold" text-decoration="undefined" x="308" y="442.5" text-anchor="middle" dominant-baseline="central" transform="matrix(1 0 0 1 2 10)">Suspend User Account</text></g></g><g><path fill="#C0C0C0" stroke="none" paint-order="stroke fill markers" d=" M 161 530.5 C 161 520.835016 207.3385232 513 264.5 513 C 321.6614768 513 368 520.835016 368 530.5 C 368 540.164984 321.6614768 548 264.5 548 C 207.3385232 548 161 540.164984 161 530.5 Z" fill-opacity="0.2"/></g><g><path fill="#ffffff" stroke="none" paint-order="stroke fill markers" d=" M 154 523.5 C 154 513.835016 200.3385232 506 257.5 506 C 314.6614768 506 361 513.835016 361 523.5 C 361 533.164984 314.6614768 541 257.5 541 C 200.3385232 541 154 533.164984 154 523.5 Z"/></g><g><path fill="none" stroke="#000000" paint-order="fill stroke markers" d=" M 154 523.5 C 154 513.835016 200.3385232 506 257.5 506 C 314.6614768 506 361 513.835016 361 523.5 C 361 533.164984 314.6614768 541 257.5 541 C 200.3385232 541 154 533.164984 154 523.5 Z" stroke-miterlimit="10" stroke-dasharray=""/></g><g><g><path fill="none" stroke="none"/><text fill="#000000" stroke="none" font-family="Arial" font-size="13px" font-style="normal" font-weight="bold" text-decoration="undefined" x="255.5" y="514.5" text-anchor="middle" dominant-baseline="central" transform="matrix(1 0 0 1 2 10)">Restore User Account</text></g></g><g><path fill="none" stroke="#000000" paint-order="fill stroke markers" d=" M 106 354 L 272 433" stroke-miterlimit="10" stroke-dasharray=""/></g><g><path fill="none" stroke="#000000" paint-order="fill stroke markers" d=" M 261.014576374646 432.43390127052317 L 272 433 L 264.6324247107395 424.83184020987113" stroke-miterlimit="10" stroke-dasharray=""/></g><g><path fill="none" stroke="#000000" paint-order="fill stroke markers" d=" M 99 371 L 238 505" stroke-miterlimit="10" stroke-dasharray=""/></g><g><path fill="none" stroke="#000000" paint-order="fill stroke markers" d=" M 227.76194472969996 500.97728645286776 L 238 505 L 233.60508972015637 494.91611366425997" stroke-miterlimit="10" stroke-dasharray=""/></g><g><path fill="#ffffff" stroke="none" paint-order="stroke fill markers" d=" M 59.06524076704545 919.9300000000001 C 59.06524076704545 912.7889575360001 64.75008416835455 907 71.7626953125 907 C 78.77530645664545 907 84.46014985795455 912.7889575360001 84.46014985795455 919.9300000000001 C 84.46014985795455 927.071042464 78.77530645664545 932.86 71.7626953125 932.86 C 64.75008416835455 932.86 59.06524076704545 927.071042464 59.06524076704545 919.9300000000001 Z"/></g><g><path fill="none" stroke="#000000" paint-order="fill stroke markers" d=" M 59.06524076704545 919.9300000000001 C 59.06524076704545 912.7889575360001 64.75008416835455 907 71.7626953125 907 C 78.77530645664545 907 84.46014985795455 912.7889575360001 84.46014985795455 919.9300000000001 C 84.46014985795455 927.071042464 78.77530645664545 932.86 71.7626953125 932.86 C 64.75008416835455 932.86 59.06524076704545 927.071042464 59.06524076704545 919.9300000000001 Z" stroke-miterlimit="10" stroke-dasharray=""/></g><g><path fill="none" stroke="#000000" paint-order="fill stroke markers" d=" M 71.7626953125 932.86 L 71.7626953125 958.14" stroke-miterlimit="10" stroke-dasharray=""/></g><g><path fill="none" stroke="#000000" paint-order="fill stroke markers" d=" M 58.31833167613637 942.34 L 85.20705894886363 942.34" stroke-miterlimit="10" stroke-dasharray=""/></g><g><path fill="none" stroke="#000000" paint-order="fill stroke markers" d=" M 71.7626953125 958.14 L 53.08996803977273 984" stroke-miterlimit="10" stroke-dasharray=""/></g><g><path fill="none" stroke="#000000" paint-order="fill stroke markers" d=" M 71.7626953125 958.14 L 90.43542258522727 984" stroke-miterlimit="10" stroke-dasharray=""/></g><g><g><path fill="none" stroke="none"/><text fill="#000000" stroke="none" font-family="Arial" font-size="13px" font-style="normal" font-weight="bold" text-decoration="undefined" x="70.2626953125" y="988.5" text-anchor="middle" dominant-baseline="central" transform="matrix(1 0 0 1 2 10)">Property Owner</text></g></g><g><path fill="#C0C0C0" stroke="none" paint-order="stroke fill markers" d=" M 161 594.5 C 161 584.835016 231.2912864 577 318 577 C 404.7087136 577 475 584.835016 475 594.5 C 475 604.164984 404.7087136 612 318 612 C 231.2912864 612 161 604.164984 161 594.5 Z" fill-opacity="0.2"/></g><g><path fill="#ffffff" stroke="none" paint-order="stroke fill markers" d=" M 154 587.5 C 154 577.835016 224.2912864 570 311 570 C 397.7087136 570 468 577.835016 468 587.5 C 468 597.164984 397.7087136 605 311 605 C 224.2912864 605 154 597.164984 154 587.5 Z"/></g><g><path fill="none" stroke="#000000" paint-order="fill stroke markers" d=" M 154 587.5 C 154 577.835016 224.2912864 570 311 570 C 397.7087136 570 468 577.835016 468 587.5 C 468 597.164984 397.7087136 605 311 605 C 224.2912864 605 154 597.164984 154 587.5 Z" stroke-miterlimit="10" stroke-dasharray=""/></g><g><g><path fill="none" stroke="none"/><text fill="#000000" stroke="none" font-family="Arial" font-size="13px" font-style="normal" font-weight="bold" text-decoration="undefined" x="309" y="578.5" text-anchor="middle" dominant-baseline="central" transform="matrix(1 0 0 1 2 10)">Update Profile info and availability</text></g></g><g><path fill="#C0C0C0" stroke="none" paint-order="stroke fill markers" d=" M 193 778.5 C 193 768.835016 236.652232 761 290.5 761 C 344.347768 761 388 768.835016 388 778.5 C 388 788.164984 344.347768 796 290.5 796 C 236.652232 796 193 788.164984 193 778.5 Z" fill-opacity="0.2"/></g><g><path fill="#ffffff" stroke="none" paint-order="stroke fill markers" d=" M 186 771.5 C 186 761.835016 229.652232 754 283.5 754 C 337.347768 754 381 761.835016 381 771.5 C 381 781.164984 337.347768 789 283.5 789 C 229.652232 789 186 781.164984 186 771.5 Z"/></g><g><path fill="none" stroke="#000000" paint-order="fill stroke markers" d=" M 186 771.5 C 186 761.835016 229.652232 754 283.5 754 C 337.347768 754 381 761.835016 381 771.5 C 381 781.164984 337.347768 789 283.5 789 C 229.652232 789 186 781.164984 186 771.5 Z" stroke-miterlimit="10" stroke-dasharray=""/></g><g><g><path fill="none" stroke="none"/><text fill="#000000" stroke="none" font-family="Arial" font-size="13px" font-style="normal" font-weight="bold" text-decoration="undefined" x="281.5" y="762.5" text-anchor="middle" dominant-baseline="central" transform="matrix(1 0 0 1 2 10)">Add Property Listing</text></g></g><g><path fill="#C0C0C0" stroke="none" paint-order="stroke fill markers" d=" M 313 834.5 C 313 824.835016 363.36796 817 425.5 817 C 487.63204 817 538 824.835016 538 834.5 C 538 844.164984 487.63204 852 425.5 852 C 363.36796 852 313 844.164984 313 834.5 Z" fill-opacity="0.2"/></g><g><path fill="#ffffff" stroke="none" paint-order="stroke fill markers" d=" M 306 827.5 C 306 817.835016 356.36796 810 418.5 810 C 480.63204 810 531 817.835016 531 827.5 C 531 837.164984 480.63204 845 418.5 845 C 356.36796 845 306 837.164984 306 827.5 Z"/></g><g><path fill="none" stroke="#000000" paint-order="fill stroke markers" d=" M 306 827.5 C 306 817.835016 356.36796 810 418.5 810 C 480.63204 810 531 817.835016 531 827.5 C 531 837.164984 480.63204 845 418.5 845 C 356.36796 845 306 837.164984 306 827.5 Z" stroke-miterlimit="10" stroke-dasharray=""/></g><g><g><path fill="none" stroke="none"/><text fill="#000000" stroke="none" font-family="Arial" font-size="13px" font-style="normal" font-weight="bold" text-decoration="undefined" x="416.5" y="818.5" text-anchor="middle" dominant-baseline="central" transform="matrix(1 0 0 1 2 10)">Upload Property Images</text></g></g><g><path fill="#C0C0C0" stroke="none" paint-order="stroke fill markers" d=" M 241 890.5 C 241 880.835016 284.4283744 873 338 873 C 391.5716256 873 435 880.835016 435 890.5 C 435 900.164984 391.5716256 908 338 908 C 284.4283744 908 241 900.164984 241 890.5 Z" fill-opacity="0.2"/></g><g><path fill="#ffffff" stroke="none" paint-order="stroke fill markers" d=" M 234 883.5 C 234 873.835016 277.4283744 866 331 866 C 384.5716256 866 428 873.835016 428 883.5 C 428 893.164984 384.5716256 901 331 901 C 277.4283744 901 234 893.164984 234 883.5 Z"/></g><g><path fill="none" stroke="#000000" paint-order="fill stroke markers" d=" M 234 883.5 C 234 873.835016 277.4283744 866 331 866 C 384.5716256 866 428 873.835016 428 883.5 C 428 893.164984 384.5716256 901 331 901 C 277.4283744 901 234 893.164984 234 883.5 Z" stroke-miterlimit="10" stroke-dasharray=""/></g><g><g><path fill="none" stroke="none"/><text fill="#000000" stroke="none" font-family="Arial" font-size="13px" font-style="normal" font-weight="bold" text-decoration="undefined" x="329" y="874.5" text-anchor="middle" dominant-baseline="central" transform="matrix(1 0 0 1 2 10)">Edit Property Listing</text></g></g><g><path fill="#C0C0C0" stroke="none" paint-order="stroke fill markers" d=" M 233 978.5 C 233 968.835016 278.6669504 961 335 961 C 391.3330496 961 437 968.835016 437 978.5 C 437 988.164984 391.3330496 996 335 996 C 278.6669504 996 233 988.164984 233 978.5 Z" fill-opacity="0.2"/></g><g><path fill="#ffffff" stroke="none" paint-order="stroke fill markers" d=" M 226 971.5 C 226 961.835016 271.6669504 954 328 954 C 384.3330496 954 430 961.835016 430 971.5 C 430 981.164984 384.3330496 989 328 989 C 271.6669504 989 226 981.164984 226 971.5 Z"/></g><g><path fill="none" stroke="#000000" paint-order="fill stroke markers" d=" M 226 971.5 C 226 961.835016 271.6669504 954 328 954 C 384.3330496 954 430 961.835016 430 971.5 C 430 981.164984 384.3330496 989 328 989 C 271.6669504 989 226 981.164984 226 971.5 Z" stroke-miterlimit="10" stroke-dasharray=""/></g><g><g><path fill="none" stroke="none"/><text fill="#000000" stroke="none" font-family="Arial" font-size="13px" font-style="normal" font-weight="bold" text-decoration="undefined" x="326" y="962.5" text-anchor="middle" dominant-baseline="central" transform="matrix(1 0 0 1 2 10)">View Rental Requests</text></g></g><g><path fill="#C0C0C0" stroke="none" paint-order="stroke fill markers" d=" M 217 1026.5 C 217 1016.835016 269.38267840000003 1009 334 1009 C 398.61732159999997 1009 451 1016.835016 451 1026.5 C 451 1036.164984 398.61732159999997 1044 334 1044 C 269.38267840000003 1044 217 1036.164984 217 1026.5 Z" fill-opacity="0.2"/></g><g><path fill="#ffffff" stroke="none" paint-order="stroke fill markers" d=" M 210 1019.5 C 210 1009.835016 262.38267840000003 1002 327 1002 C 391.61732159999997 1002 444 1009.835016 444 1019.5 C 444 1029.164984 391.61732159999997 1037 327 1037 C 262.38267840000003 1037 210 1029.164984 210 1019.5 Z"/></g><g><path fill="none" stroke="#000000" paint-order="fill stroke markers" d=" M 210 1019.5 C 210 1009.835016 262.38267840000003 1002 327 1002 C 391.61732159999997 1002 444 1009.835016 444 1019.5 C 444 1029.164984 391.61732159999997 1037 327 1037 C 262.38267840000003 1037 210 1029.164984 210 1019.5 Z" stroke-miterlimit="10" stroke-dasharray=""/></g><g><g><path fill="none" stroke="none"/><text fill="#000000" stroke="none" font-family="Arial" font-size="13px" font-style="normal" font-weight="bold" text-decoration="undefined" x="325" y="1010.5" text-anchor="middle" dominant-baseline="central" transform="matrix(1 0 0 1 2 10)">Accept or reject requests</text></g></g><g><path fill="#C0C0C0" stroke="none" paint-order="stroke fill markers" d=" M 201 1098.5 C 201 1088.835016 250.9202448 1081 312.5 1081 C 374.0797552 1081 424 1088.835016 424 1098.5 C 424 1108.164984 374.0797552 1116 312.5 1116 C 250.9202448 1116 201 1108.164984 201 1098.5 Z" fill-opacity="0.2"/></g><g><path fill="#ffffff" stroke="none" paint-order="stroke fill markers" d=" M 194 1091.5 C 194 1081.835016 243.9202448 1074 305.5 1074 C 367.0797552 1074 417 1081.835016 417 1091.5 C 417 1101.164984 367.0797552 1109 305.5 1109 C 243.9202448 1109 194 1101.164984 194 1091.5 Z"/></g><g><path fill="none" stroke="#000000" paint-order="fill stroke markers" d=" M 194 1091.5 C 194 1081.835016 243.9202448 1074 305.5 1074 C 367.0797552 1074 417 1081.835016 417 1091.5 C 417 1101.164984 367.0797552 1109 305.5 1109 C 243.9202448 1109 194 1101.164984 194 1091.5 Z" stroke-miterlimit="10" stroke-dasharray=""/></g><g><g><path fill="none" stroke="none"/><text fill="#000000" stroke="none" font-family="Arial" font-size="13px" font-style="normal" font-weight="bold" text-decoration="undefined" x="303.5" y="1082.5" text-anchor="middle" dominant-baseline="central" transform="matrix(1 0 0 1 2 10)">send message to tenant</text></g></g><g><path fill="#C0C0C0" stroke="none" paint-order="stroke fill markers" d=" M 201 1162.5 C 201 1152.835016 244.8760896 1145 299 1145 C 353.1239104 1145 397 1152.835016 397 1162.5 C 397 1172.164984 353.1239104 1180 299 1180 C 244.8760896 1180 201 1172.164984 201 1162.5 Z" fill-opacity="0.2"/></g><g><path fill="#ffffff" stroke="none" paint-order="stroke fill markers" d=" M 194 1155.5 C 194 1145.835016 237.8760896 1138 292 1138 C 346.1239104 1138 390 1145.835016 390 1155.5 C 390 1165.164984 346.1239104 1173 292 1173 C 237.8760896 1173 194 1165.164984 194 1155.5 Z"/></g><g><path fill="none" stroke="#000000" paint-order="fill stroke markers" d=" M 194 1155.5 C 194 1145.835016 237.8760896 1138 292 1138 C 346.1239104 1138 390 1145.835016 390 1155.5 C 390 1165.164984 346.1239104 1173 292 1173 C 237.8760896 1173 194 1165.164984 194 1155.5 Z" stroke-miterlimit="10" stroke-dasharray=""/></g><g><g><path fill="none" stroke="none"/><text fill="#000000" stroke="none" font-family="Arial" font-size="13px" font-style="normal" font-weight="bold" text-decoration="undefined" x="290" y="1146.5" text-anchor="middle" dominant-baseline="central" transform="matrix(1 0 0 1 2 10)">view booking history</text></g></g><g><path fill="#C0C0C0" stroke="none" paint-order="stroke fill markers" d=" M 153 1250.5 C 153 1240.835016 232.0217328 1233 329.5 1233 C 426.9782672 1233 506 1240.835016 506 1250.5 C 506 1260.164984 426.9782672 1268 329.5 1268 C 232.0217328 1268 153 1260.164984 153 1250.5 Z" fill-opacity="0.2"/></g><g><path fill="#ffffff" stroke="none" paint-order="stroke fill markers" d=" M 146 1243.5 C 146 1233.835016 225.0217328 1226 322.5 1226 C 419.9782672 1226 499 1233.835016 499 1243.5 C 499 1253.164984 419.9782672 1261 322.5 1261 C 225.0217328 1261 146 1253.164984 146 1243.5 Z"/></g><g><path fill="none" stroke="#000000" paint-order="fill stroke markers" d=" M 146 1243.5 C 146 1233.835016 225.0217328 1226 322.5 1226 C 419.9782672 1226 499 1233.835016 499 1243.5 C 499 1253.164984 419.9782672 1261 322.5 1261 C 225.0217328 1261 146 1253.164984 146 1243.5 Z" stroke-miterlimit="10" stroke-dasharray=""/></g><g><g><path fill="none" stroke="none"/><text fill="#000000" stroke="none" font-family="Arial" font-size="13px" font-style="normal" font-weight="bold" text-decoration="undefined" x="320.5" y="1234.5" text-anchor="middle" dominant-baseline="central" transform="matrix(1 0 0 1 2 10)">mark property as unavailable or rented</text></g></g><g><path fill="none" stroke="#000000" paint-order="fill stroke markers" d=" M 105 905 L 299 606" stroke-miterlimit="10" stroke-dasharray=""/></g><g><path fill="none" stroke="#000000" paint-order="fill stroke markers" d=" M 296.99980890898036 616.8166184919043 L 299 606 L 289.9371470307378 612.2341556010044" stroke-miterlimit="10" stroke-dasharray=""/></g><g><path fill="none" stroke="#000000" paint-order="fill stroke markers" d=" M 127 909 L 261 790" stroke-miterlimit="10" stroke-dasharray=""/></g><g><path fill="none" stroke="#000000" paint-order="fill stroke markers" d=" M 256.19638737090565 799.8957215861 L 261 790 L 250.60600109750865 793.6006647740395" stroke-miterlimit="10" stroke-dasharray=""/></g><g><path fill="none" stroke="#000000" paint-order="fill stroke markers" d=" M 127 937 L 368 846" stroke-miterlimit="10" stroke-dasharray=""/></g><g><path fill="none" stroke="#000000" paint-order="fill stroke markers" d=" M 359.9795321467842 853.5280871020154 L 368 846 L 357.0055113535043 845.6518342319005" stroke-miterlimit="10" stroke-dasharray=""/></g><g><path fill="none" stroke="#000000" paint-order="fill stroke markers" d=" M 127 942 L 265 902" stroke-miterlimit="10" stroke-dasharray=""/></g><g><path fill="none" stroke="#000000" paint-order="fill stroke markers" d=" M 256.41100571765026 908.8723487409884 L 265 902 L 254.06717950194636 900.7861482968098" stroke-miterlimit="10" stroke-dasharray=""/></g><g><path fill="none" stroke="#000000" paint-order="fill stroke markers" d=" M 127 961 L 225 966" stroke-miterlimit="10" stroke-dasharray=""/></g><g><path fill="none" stroke="#000000" paint-order="fill stroke markers" d=" M 214.63603418805585 969.6862192893061 L 225 966 L 215.06501883797972 961.2781201507977" stroke-miterlimit="10" stroke-dasharray=""/></g><g><path fill="none" stroke="#000000" paint-order="fill stroke markers" d=" M 127 971 L 251 1001" stroke-miterlimit="10" stroke-dasharray=""/></g><g><path fill="none" stroke="#000000" paint-order="fill stroke markers" d=" M 240.132425363052 1002.7017113475454 L 251 1001 L 242.11217264569171 994.5187559126346" stroke-miterlimit="10" stroke-dasharray=""/></g><g><path fill="none" stroke="#000000" paint-order="fill stroke markers" d=" M 127 990 L 273 1073" stroke-miterlimit="10" stroke-dasharray=""/></g><g><path fill="none" stroke="#000000" paint-order="fill stroke markers" d=" M 262.0847747805202 1071.6369672021435 L 273 1073 L 266.24557996347147 1064.3179604947834" stroke-miterlimit="10" stroke-dasharray=""/></g><g><path fill="none" stroke="#000000" paint-order="fill stroke markers" d=" M 127 1007 L 272 1137" stroke-miterlimit="10" stroke-dasharray=""/></g><g><path fill="none" stroke="#000000" paint-order="fill stroke markers" d=" M 261.6231402690385 1133.3502353330728 L 272 1137 L 267.2432254625347 1127.0816787710962" stroke-miterlimit="10" stroke-dasharray=""/></g><g><path fill="none" stroke="#000000" paint-order="fill stroke markers" d=" M 118 1011 L 306 1225" stroke-miterlimit="10" stroke-dasharray=""/></g><g><path fill="none" stroke="#000000" paint-order="fill stroke markers" d=" M 296.1302039650329 1220.14334207215 L 306 1225 L 302.4551760494327 1214.5868245400607" stroke-miterlimit="10" stroke-dasharray=""/></g><g><path fill="#ffffff" stroke="none" paint-order="stroke fill markers" d=" M 1530.983486328125 267.85 C 1530.983486328125 262.96227952000004 1534.941288696125 259 1539.823486328125 259 C 1544.705683960125 259 1548.663486328125 262.96227952000004 1548.663486328125 267.85 C 1548.663486328125 272.73772048 1544.705683960125 276.7 1539.823486328125 276.7 C 1534.941288696125 276.7 1530.983486328125 272.73772048 1530.983486328125 267.85 Z"/></g><g><path fill="none" stroke="#000000" paint-order="fill stroke markers" d=" M 1530.983486328125 267.85 C 1530.983486328125 262.96227952000004 1534.941288696125 259 1539.823486328125 259 C 1544.705683960125 259 1548.663486328125 262.96227952000004 1548.663486328125 267.85 C 1548.663486328125 272.73772048 1544.705683960125 276.7 1539.823486328125 276.7 C 1534.941288696125 276.7 1530.983486328125 272.73772048 1530.983486328125 267.85 Z" stroke-miterlimit="10" stroke-dasharray=""/></g><g><path fill="none" stroke="#000000" paint-order="fill stroke markers" d=" M 1539.823486328125 276.7 L 1539.823486328125 294.3" stroke-miterlimit="10" stroke-dasharray=""/></g><g><path fill="none" stroke="#000000" paint-order="fill stroke markers" d=" M 1530.463486328125 283.3 L 1549.183486328125 283.3" stroke-miterlimit="10" stroke-dasharray=""/></g><g><path fill="none" stroke="#000000" paint-order="fill stroke markers" d=" M 1539.823486328125 294.3 L 1526.823486328125 312" stroke-miterlimit="10" stroke-dasharray=""/></g><g><path fill="none" stroke="#000000" paint-order="fill stroke markers" d=" M 1539.823486328125 294.3 L 1552.823486328125 312" stroke-miterlimit="10" stroke-dasharray=""/></g><g><g><path fill="none" stroke="none"/><text fill="#000000" stroke="none" font-family="Arial" font-size="13px" font-style="normal" font-weight="bold" text-decoration="undefined" x="1538.323486328125" y="316.5" text-anchor="middle" dominant-baseline="central" transform="matrix(1 0 0 1 2 10)">Tenant</text></g></g><g><path fill="#C0C0C0" stroke="none" paint-order="stroke fill markers" d=" M 1289 42.5 C 1289 32.835015999999996 1327.2796496 25 1374.5 25 C 1421.7203504 25 1460 32.835015999999996 1460 42.5 C 1460 52.164984000000004 1421.7203504 60 1374.5 60 C 1327.2796496 60 1289 52.164984000000004 1289 42.5 Z" fill-opacity="0.2"/></g><g><path fill="#ffffff" stroke="none" paint-order="stroke fill markers" d=" M 1282 35.5 C 1282 25.835016 1320.2796496 18 1367.5 18 C 1414.7203504 18 1453 25.835016 1453 35.5 C 1453 45.164984000000004 1414.7203504 53 1367.5 53 C 1320.2796496 53 1282 45.164984000000004 1282 35.5 Z"/></g><g><path fill="none" stroke="#000000" paint-order="fill stroke markers" d=" M 1282 35.5 C 1282 25.835016 1320.2796496 18 1367.5 18 C 1414.7203504 18 1453 25.835016 1453 35.5 C 1453 45.164984000000004 1414.7203504 53 1367.5 53 C 1320.2796496 53 1282 45.164984000000004 1282 35.5 Z" stroke-miterlimit="10" stroke-dasharray=""/></g><g><g><path fill="none" stroke="none"/><text fill="#000000" stroke="none" font-family="Arial" font-size="13px" font-style="normal" font-weight="bold" text-decoration="undefined" x="1365.5" y="26.5" text-anchor="middle" dominant-baseline="central" transform="matrix(1 0 0 1 2 10)">Search Properties</text></g></g><g><path fill="#C0C0C0" stroke="none" paint-order="stroke fill markers" d=" M 969 138.5 C 969 128.835016 1003.697928 121 1046.5 121 C 1089.302072 121 1124 128.835016 1124 138.5 C 1124 148.164984 1089.302072 156 1046.5 156 C 1003.697928 156 969 148.164984 969 138.5 Z" fill-opacity="0.2"/></g><g><path fill="#ffffff" stroke="none" paint-order="stroke fill markers" d=" M 962 131.5 C 962 121.835016 996.697928 114 1039.5 114 C 1082.302072 114 1117 121.835016 1117 131.5 C 1117 141.164984 1082.302072 149 1039.5 149 C 996.697928 149 962 141.164984 962 131.5 Z"/></g><g><path fill="none" stroke="#000000" paint-order="fill stroke markers" d=" M 962 131.5 C 962 121.835016 996.697928 114 1039.5 114 C 1082.302072 114 1117 121.835016 1117 131.5 C 1117 141.164984 1082.302072 149 1039.5 149 C 996.697928 149 962 141.164984 962 131.5 Z" stroke-miterlimit="10" stroke-dasharray=""/></g><g><g><path fill="none" stroke="none"/><text fill="#000000" stroke="none" font-family="Arial" font-size="13px" font-style="normal" font-weight="bold" text-decoration="undefined" x="1037.5" y="122.5" text-anchor="middle" dominant-baseline="central" transform="matrix(1 0 0 1 2 10)">Filter Properties</text></g></g><g><path fill="#C0C0C0" stroke="none" paint-order="stroke fill markers" d=" M 993 98.5 C 993 88.835016 1078.5136032 81 1184 81 C 1289.4863968 81 1375 88.835016 1375 98.5 C 1375 108.164984 1289.4863968 116 1184 116 C 1078.5136032 116 993 108.164984 993 98.5 Z" fill-opacity="0.2"/></g><g><path fill="#ffffff" stroke="none" paint-order="stroke fill markers" d=" M 986 91.5 C 986 81.835016 1071.5136032 74 1177 74 C 1282.4863968 74 1368 81.835016 1368 91.5 C 1368 101.164984 1282.4863968 109 1177 109 C 1071.5136032 109 986 101.164984 986 91.5 Z"/></g><g><path fill="none" stroke="#000000" paint-order="fill stroke markers" d=" M 986 91.5 C 986 81.835016 1071.5136032 74 1177 74 C 1282.4863968 74 1368 81.835016 1368 91.5 C 1368 101.164984 1282.4863968 109 1177 109 C 1071.5136032 109 986 101.164984 986 91.5 Z" stroke-miterlimit="10" stroke-dasharray=""/></g><g><g><path fill="none" stroke="none"/><text fill="#000000" stroke="none" font-family="Arial" font-size="13px" font-style="normal" font-weight="bold" text-decoration="undefined" x="1175" y="82.5" text-anchor="middle" dominant-baseline="central" transform="matrix(1 0 0 1 2 10)">View Property Details and booking history</text></g></g><g><path fill="#C0C0C0" stroke="none" paint-order="stroke fill markers" d=" M 809 178.5 C 809 168.835016 895.8567488 161 1003 161 C 1110.1432512000001 161 1197 168.835016 1197 178.5 C 1197 188.164984 1110.1432512000001 196 1003 196 C 895.8567488 196 809 188.164984 809 178.5 Z" fill-opacity="0.2"/></g><g><path fill="#ffffff" stroke="none" paint-order="stroke fill markers" d=" M 802 171.5 C 802 161.835016 888.8567488 154 996 154 C 1103.1432512000001 154 1190 161.835016 1190 171.5 C 1190 181.164984 1103.1432512000001 189 996 189 C 888.8567488 189 802 181.164984 802 171.5 Z"/></g><g><path fill="none" stroke="#000000" paint-order="fill stroke markers" d=" M 802 171.5 C 802 161.835016 888.8567488 154 996 154 C 1103.1432512000001 154 1190 161.835016 1190 171.5 C 1190 181.164984 1103.1432512000001 189 996 189 C 888.8567488 189 802 181.164984 802 171.5 Z" stroke-miterlimit="10" stroke-dasharray=""/></g><g><g><path fill="none" stroke="none"/><text fill="#000000" stroke="none" font-family="Arial" font-size="13px" font-style="normal" font-weight="bold" text-decoration="undefined" x="994" y="162.5" text-anchor="middle" dominant-baseline="central" transform="matrix(1 0 0 1 2 10)">Send Rental Requests and Message owner</text></g></g><g><path fill="#C0C0C0" stroke="none" paint-order="stroke fill markers" d=" M 961 234.5 C 961 224.835016 1008.6816688 217 1067.5 217 C 1126.3183312 217 1174 224.835016 1174 234.5 C 1174 244.164984 1126.3183312 252 1067.5 252 C 1008.6816688 252 961 244.164984 961 234.5 Z" fill-opacity="0.2"/></g><g><path fill="#ffffff" stroke="none" paint-order="stroke fill markers" d=" M 954 227.5 C 954 217.835016 1001.6816688 210 1060.5 210 C 1119.3183312 210 1167 217.835016 1167 227.5 C 1167 237.164984 1119.3183312 245 1060.5 245 C 1001.6816688 245 954 237.164984 954 227.5 Z"/></g><g><path fill="none" stroke="#000000" paint-order="fill stroke markers" d=" M 954 227.5 C 954 217.835016 1001.6816688 210 1060.5 210 C 1119.3183312 210 1167 217.835016 1167 227.5 C 1167 237.164984 1119.3183312 245 1060.5 245 C 1001.6816688 245 954 237.164984 954 227.5 Z" stroke-miterlimit="10" stroke-dasharray=""/></g><g><g><path fill="none" stroke="none"/><text fill="#000000" stroke="none" font-family="Arial" font-size="13px" font-style="normal" font-weight="bold" text-decoration="undefined" x="1058.5" y="218.5" text-anchor="middle" dominant-baseline="central" transform="matrix(1 0 0 1 2 10)">Cancel Rental Request</text></g></g><g><path fill="#C0C0C0" stroke="none" paint-order="stroke fill markers" d=" M 881 282.5 C 881 272.835016 944.1278432 265 1022 265 C 1099.8721568 265 1163 272.835016 1163 282.5 C 1163 292.164984 1099.8721568 300 1022 300 C 944.1278432 300 881 292.164984 881 282.5 Z" fill-opacity="0.2"/></g><g><path fill="#ffffff" stroke="none" paint-order="stroke fill markers" d=" M 874 275.5 C 874 265.835016 937.1278432 258 1015 258 C 1092.8721568 258 1156 265.835016 1156 275.5 C 1156 285.164984 1092.8721568 293 1015 293 C 937.1278432 293 874 285.164984 874 275.5 Z"/></g><g><path fill="none" stroke="#000000" paint-order="fill stroke markers" d=" M 874 275.5 C 874 265.835016 937.1278432 258 1015 258 C 1092.8721568 258 1156 265.835016 1156 275.5 C 1156 285.164984 1092.8721568 293 1015 293 C 937.1278432 293 874 285.164984 874 275.5 Z" stroke-miterlimit="10" stroke-dasharray=""/></g><g><g><path fill="none" stroke="none"/><text fill="#000000" stroke="none" font-family="Arial" font-size="13px" font-style="normal" font-weight="bold" text-decoration="undefined" x="1013" y="266.5" text-anchor="middle" dominant-baseline="central" transform="matrix(1 0 0 1 2 10)">Receive messages from owner</text></g></g><g><path fill="#C0C0C0" stroke="none" paint-order="stroke fill markers" d=" M 945 346.5 C 945 336.835016 994.0248144 329 1054.5 329 C 1114.9751856 329 1164 336.835016 1164 346.5 C 1164 356.164984 1114.9751856 364 1054.5 364 C 994.0248144 364 945 356.164984 945 346.5 Z" fill-opacity="0.2"/></g><g><path fill="#ffffff" stroke="none" paint-order="stroke fill markers" d=" M 938 339.5 C 938 329.835016 987.0248144 322 1047.5 322 C 1107.9751856 322 1157 329.835016 1157 339.5 C 1157 349.164984 1107.9751856 357 1047.5 357 C 987.0248144 357 938 349.164984 938 339.5 Z"/></g><g><path fill="none" stroke="#000000" paint-order="fill stroke markers" d=" M 938 339.5 C 938 329.835016 987.0248144 322 1047.5 322 C 1107.9751856 322 1157 329.835016 1157 339.5 C 1157 349.164984 1107.9751856 357 1047.5 357 C 987.0248144 357 938 349.164984 938 339.5 Z" stroke-miterlimit="10" stroke-dasharray=""/></g><g><g><path fill="none" stroke="none"/><text fill="#000000" stroke="none" font-family="Arial" font-size="13px" font-style="normal" font-weight="bold" text-decoration="undefined" x="1045.5" y="330.5" text-anchor="middle" dominant-baseline="central" transform="matrix(1 0 0 1 2 10)">Submit Rental Payment</text></g></g><g><path fill="#C0C0C0" stroke="none" paint-order="stroke fill markers" d=" M 937 394.5 C 937 384.835016 989.3826784 377 1054 377 C 1118.6173216 377 1171 384.835016 1171 394.5 C 1171 404.164984 1118.6173216 412 1054 412 C 989.3826784 412 937 404.164984 937 394.5 Z" fill-opacity="0.2"/></g><g><path fill="#ffffff" stroke="none" paint-order="stroke fill markers" d=" M 930 387.5 C 930 377.835016 982.3826784 370 1047 370 C 1111.6173216 370 1164 377.835016 1164 387.5 C 1164 397.164984 1111.6173216 405 1047 405 C 982.3826784 405 930 397.164984 930 387.5 Z"/></g><g><path fill="none" stroke="#000000" paint-order="fill stroke markers" d=" M 930 387.5 C 930 377.835016 982.3826784 370 1047 370 C 1111.6173216 370 1164 377.835016 1164 387.5 C 1164 397.164984 1111.6173216 405 1047 405 C 982.3826784 405 930 397.164984 930 387.5 Z" stroke-miterlimit="10" stroke-dasharray=""/></g><g><g><path fill="none" stroke="none"/><text fill="#000000" stroke="none" font-family="Arial" font-size="13px" font-style="normal" font-weight="bold" text-decoration="undefined" x="1045" y="378.5" text-anchor="middle" dominant-baseline="central" transform="matrix(1 0 0 1 2 10)">Save favourite properties</text></g></g><g><path fill="#C0C0C0" stroke="none" paint-order="stroke fill markers" d=" M 961 442.5 C 961 432.835016 1013.1588208000001 425 1077.5 425 C 1141.8411792 425 1194 432.835016 1194 442.5 C 1194 452.164984 1141.8411792 460 1077.5 460 C 1013.1588208000001 460 961 452.164984 961 442.5 Z" fill-opacity="0.2"/></g><g><path fill="#ffffff" stroke="none" paint-order="stroke fill markers" d=" M 954 435.5 C 954 425.835016 1006.1588208000001 418 1070.5 418 C 1134.8411792 418 1187 425.835016 1187 435.5 C 1187 445.164984 1134.8411792 453 1070.5 453 C 1006.1588208000001 453 954 445.164984 954 435.5 Z"/></g><g><path fill="none" stroke="#000000" paint-order="fill stroke markers" d=" M 954 435.5 C 954 425.835016 1006.1588208000001 418 1070.5 418 C 1134.8411792 418 1187 425.835016 1187 435.5 C 1187 445.164984 1134.8411792 453 1070.5 453 C 1006.1588208000001 453 954 445.164984 954 435.5 Z" stroke-miterlimit="10" stroke-dasharray=""/></g><g><g><path fill="none" stroke="none"/><text fill="#000000" stroke="none" font-family="Arial" font-size="13px" font-style="normal" font-weight="bold" text-decoration="undefined" x="1068.5" y="426.5" text-anchor="middle" dominant-baseline="central" transform="matrix(1 0 0 1 2 10)">Review and rate property</text></g></g><g><path fill="none" stroke="#000000" paint-order="fill stroke markers" d=" M 1513 283 L 1210 110" stroke-miterlimit="10" stroke-dasharray=""/></g><g><path fill="none" stroke="#000000" paint-order="fill stroke markers" d=" M 1220.9126708755937 111.38333450797995 L 1210 110 L 1216.7382583657472 118.69458878823126" stroke-miterlimit="10" stroke-dasharray=""/></g><g><path fill="none" stroke="#000000" paint-order="fill stroke markers" d=" M 1513 258 L 1379 54" stroke-miterlimit="10" stroke-dasharray=""/></g><g><path fill="none" stroke="#000000" paint-order="fill stroke markers" d=" M 1388.097823785412 60.18300916784009 L 1379 54 L 1381.0610851819868 64.8051806034233" stroke-miterlimit="10" stroke-dasharray=""/></g><g><path fill="none" stroke="#000000" paint-order="fill stroke markers" d=" M 1513 289 L 1096 150" stroke-miterlimit="10" stroke-dasharray=""/></g><g><path fill="none" stroke="#000000" paint-order="fill stroke markers" d=" M 1106.9723262969392 149.22022077900252 L 1096 150 L 1104.3099935049527 157.20721915496142" stroke-miterlimit="10" stroke-dasharray=""/></g><g><path fill="none" stroke="#000000" paint-order="fill stroke markers" d=" M 1513 292 L 1077 190" stroke-miterlimit="10" stroke-dasharray=""/></g><g><path fill="none" stroke="#000000" paint-order="fill stroke markers" d=" M 1087.8543950680676 188.2161536763756 L 1077 190 L 1085.936586190338 196.41384652627895" stroke-miterlimit="10" stroke-dasharray=""/></g><g><path fill="none" stroke="#000000" paint-order="fill stroke markers" d=" M 1513 294 L 1168 243" stroke-miterlimit="10" stroke-dasharray=""/></g><g><path fill="none" stroke="#000000" paint-order="fill stroke markers" d=" M 1178.669008847273 240.32189428572946 L 1168 243 L 1177.4378352157412 248.6504217931509" stroke-miterlimit="10" stroke-dasharray=""/></g><g><path fill="none" stroke="#000000" paint-order="fill stroke markers" d=" M 1513 297 L 1157 281" stroke-miterlimit="10" stroke-dasharray=""/></g><g><path fill="none" stroke="#000000" paint-order="fill stroke markers" d=" M 1167.3414273684589 277.25101613995355 L 1157 281 L 1166.9634253293832 285.6615615093877" stroke-miterlimit="10" stroke-dasharray=""/></g><g><path fill="none" stroke="#000000" paint-order="fill stroke markers" d=" M 1513 300 L 1158 330" stroke-miterlimit="10" stroke-dasharray=""/></g><g><path fill="none" stroke="#000000" paint-order="fill stroke markers" d=" M 1167.772109570678 324.9496658983128 L 1158 330 L 1168.481050434485 333.3387994533636" stroke-miterlimit="10" stroke-dasharray=""/></g><g><path fill="none" stroke="#000000" paint-order="fill stroke markers" d=" M 1513 303 L 1147 369" stroke-miterlimit="10" stroke-dasharray=""/></g><g><path fill="none" stroke="#000000" paint-order="fill stroke markers" d=" M 1156.2543186068126 363.05377538907214 L 1147 369 L 1157.7484071869833 371.33917569729255" stroke-miterlimit="10" stroke-dasharray=""/></g><g><path fill="none" stroke="#000000" paint-order="fill stroke markers" d=" M 1513 306 L 1132 417" stroke-miterlimit="10" stroke-dasharray=""/></g><g><path fill="none" stroke="#000000" paint-order="fill stroke markers" d=" M 1140.579584956594 410.11590805025196 L 1132 417 L 1142.9344708025524 418.19889460259515" stroke-miterlimit="10" stroke-dasharray=""/></g><g><path fill="#ffffff" stroke="none" paint-order="stroke fill markers" d=" M 1554.748623046875 699.85 C 1554.748623046875 694.96227952 1558.706425414875 691 1563.588623046875 691 C 1568.470820678875 691 1572.428623046875 694.96227952 1572.428623046875 699.85 C 1572.428623046875 704.73772048 1568.470820678875 708.7 1563.588623046875 708.7 C 1558.706425414875 708.7 1554.748623046875 704.73772048 1554.748623046875 699.85 Z"/></g><g><path fill="none" stroke="#000000" paint-order="fill stroke markers" d=" M 1554.748623046875 699.85 C 1554.748623046875 694.96227952 1558.706425414875 691 1563.588623046875 691 C 1568.470820678875 691 1572.428623046875 694.96227952 1572.428623046875 699.85 C 1572.428623046875 704.73772048 1568.470820678875 708.7 1563.588623046875 708.7 C 1558.706425414875 708.7 1554.748623046875 704.73772048 1554.748623046875 699.85 Z" stroke-miterlimit="10" stroke-dasharray=""/></g><g><path fill="none" stroke="#000000" paint-order="fill stroke markers" d=" M 1563.588623046875 708.7 L 1563.588623046875 726.3" stroke-miterlimit="10" stroke-dasharray=""/></g><g><path fill="none" stroke="#000000" paint-order="fill stroke markers" d=" M 1554.228623046875 715.3 L 1572.948623046875 715.3" stroke-miterlimit="10" stroke-dasharray=""/></g><g><path fill="none" stroke="#000000" paint-order="fill stroke markers" d=" M 1563.588623046875 726.3 L 1550.588623046875 744" stroke-miterlimit="10" stroke-dasharray=""/></g><g><path fill="none" stroke="#000000" paint-order="fill stroke markers" d=" M 1563.588623046875 726.3 L 1576.588623046875 744" stroke-miterlimit="10" stroke-dasharray=""/></g><g><g><path fill="none" stroke="none"/><text fill="#000000" stroke="none" font-family="Arial" font-size="13px" font-style="normal" font-weight="bold" text-decoration="undefined" x="1562.088623046875" y="748.5" text-anchor="middle" dominant-baseline="central" transform="matrix(1 0 0 1 2 10)">HR</text></g></g><g><path fill="#C0C0C0" stroke="none" paint-order="stroke fill markers" d=" M 1177 642.5 C 1177 632.835016 1245.276568 625 1329.5 625 C 1413.723432 625 1482 632.835016 1482 642.5 C 1482 652.164984 1413.723432 660 1329.5 660 C 1245.276568 660 1177 652.164984 1177 642.5 Z" fill-opacity="0.2"/></g><g><path fill="#ffffff" stroke="none" paint-order="stroke fill markers" d=" M 1170 635.5 C 1170 625.835016 1238.276568 618 1322.5 618 C 1406.723432 618 1475 625.835016 1475 635.5 C 1475 645.164984 1406.723432 653 1322.5 653 C 1238.276568 653 1170 645.164984 1170 635.5 Z"/></g><g><path fill="none" stroke="#000000" paint-order="fill stroke markers" d=" M 1170 635.5 C 1170 625.835016 1238.276568 618 1322.5 618 C 1406.723432 618 1475 625.835016 1475 635.5 C 1475 645.164984 1406.723432 653 1322.5 653 C 1238.276568 653 1170 645.164984 1170 635.5 Z" stroke-miterlimit="10" stroke-dasharray=""/></g><g><g><path fill="none" stroke="none"/><text fill="#000000" stroke="none" font-family="Arial" font-size="13px" font-style="normal" font-weight="bold" text-decoration="undefined" x="1320.5" y="626.5" text-anchor="middle" dominant-baseline="central" transform="matrix(1 0 0 1 2 10)">Send notifications and reminders</text></g></g><g><path fill="#C0C0C0" stroke="none" paint-order="stroke fill markers" d=" M 1273 698.5 C 1273 688.835016 1314.413656 681 1365.5 681 C 1416.586344 681 1458 688.835016 1458 698.5 C 1458 708.164984 1416.586344 716 1365.5 716 C 1314.413656 716 1273 708.164984 1273 698.5 Z" fill-opacity="0.2"/></g><g><path fill="#ffffff" stroke="none" paint-order="stroke fill markers" d=" M 1266 691.5 C 1266 681.835016 1307.413656 674 1358.5 674 C 1409.586344 674 1451 681.835016 1451 691.5 C 1451 701.164984 1409.586344 709 1358.5 709 C 1307.413656 709 1266 701.164984 1266 691.5 Z"/></g><g><path fill="none" stroke="#000000" paint-order="fill stroke markers" d=" M 1266 691.5 C 1266 681.835016 1307.413656 674 1358.5 674 C 1409.586344 674 1451 681.835016 1451 691.5 C 1451 701.164984 1409.586344 709 1358.5 709 C 1307.413656 709 1266 701.164984 1266 691.5 Z" stroke-miterlimit="10" stroke-dasharray=""/></g><g><g><path fill="none" stroke="none"/><text fill="#000000" stroke="none" font-family="Arial" font-size="13px" font-style="normal" font-weight="bold" text-decoration="undefined" x="1356.5" y="682.5" text-anchor="middle" dominant-baseline="central" transform="matrix(1 0 0 1 2 10)">manage complaints</text></g></g><g><path fill="#C0C0C0" stroke="none" paint-order="stroke fill markers" d=" M 1217 754.5 C 1217 744.835016 1279.2324128 737 1356 737 C 1432.7675872 737 1495 744.835016 1495 754.5 C 1495 764.164984 1432.7675872 772 1356 772 C 1279.2324128 772 1217 764.164984 1217 754.5 Z" fill-opacity="0.2"/></g><g><path fill="#ffffff" stroke="none" paint-order="stroke fill markers" d=" M 1210 747.5 C 1210 737.835016 1272.2324128 730 1349 730 C 1425.7675872 730 1488 737.835016 1488 747.5 C 1488 757.164984 1425.7675872 765 1349 765 C 1272.2324128 765 1210 757.164984 1210 747.5 Z"/></g><g><path fill="none" stroke="#000000" paint-order="fill stroke markers" d=" M 1210 747.5 C 1210 737.835016 1272.2324128 730 1349 730 C 1425.7675872 730 1488 737.835016 1488 747.5 C 1488 757.164984 1425.7675872 765 1349 765 C 1272.2324128 765 1210 757.164984 1210 747.5 Z" stroke-miterlimit="10" stroke-dasharray=""/></g><g><g><path fill="none" stroke="none"/><text fill="#000000" stroke="none" font-family="Arial" font-size="13px" font-style="normal" font-weight="bold" text-decoration="undefined" x="1347" y="738.5" text-anchor="middle" dominant-baseline="central" transform="matrix(1 0 0 1 2 10)">Maintain recors of user issues</text></g></g><g><path fill="none" stroke="#000000" paint-order="fill stroke markers" d=" M 1537 720 L 1370 654" stroke-miterlimit="10" stroke-dasharray=""/></g><g><path fill="none" stroke="#000000" paint-order="fill stroke markers" d=" M 1380.9985334999149 653.8203869402005 L 1370 654 L 1377.9041432334711 661.6501320083233" stroke-miterlimit="10" stroke-dasharray=""/></g><g><path fill="none" stroke="#000000" paint-order="fill stroke markers" d=" M 1537 725 L 1452 709" stroke-miterlimit="10" stroke-dasharray=""/></g><g><path fill="none" stroke="#000000" paint-order="fill stroke markers" d=" M 1462.765981955265 706.7430922617648 L 1452 709 L 1461.2085736129184 715.0168240804815" stroke-miterlimit="10" stroke-dasharray=""/></g><g><path fill="none" stroke="#000000" paint-order="fill stroke markers" d=" M 1537 732 L 1489 736" stroke-miterlimit="10" stroke-dasharray=""/></g><g><path fill="none" stroke="#000000" paint-order="fill stroke markers" d=" M 1498.777989099786 730.9610587258368 L 1489 736 L 1499.4771519437884 739.3510128538653" stroke-miterlimit="10" stroke-dasharray=""/></g><g><path fill="#ffffff" stroke="none" paint-order="stroke fill markers" d=" M 1547.057705078125 1011.85 C 1547.057705078125 1006.96227952 1551.015507446125 1003 1555.897705078125 1003 C 1560.779902710125 1003 1564.737705078125 1006.96227952 1564.737705078125 1011.85 C 1564.737705078125 1016.73772048 1560.779902710125 1020.7 1555.897705078125 1020.7 C 1551.015507446125 1020.7 1547.057705078125 1016.73772048 1547.057705078125 1011.85 Z"/></g><g><path fill="none" stroke="#000000" paint-order="fill stroke markers" d=" M 1547.057705078125 1011.85 C 1547.057705078125 1006.96227952 1551.015507446125 1003 1555.897705078125 1003 C 1560.779902710125 1003 1564.737705078125 1006.96227952 1564.737705078125 1011.85 C 1564.737705078125 1016.73772048 1560.779902710125 1020.7 1555.897705078125 1020.7 C 1551.015507446125 1020.7 1547.057705078125 1016.73772048 1547.057705078125 1011.85 Z" stroke-miterlimit="10" stroke-dasharray=""/></g><g><path fill="none" stroke="#000000" paint-order="fill stroke markers" d=" M 1555.897705078125 1020.7 L 1555.897705078125 1038.3" stroke-miterlimit="10" stroke-dasharray=""/></g><g><path fill="none" stroke="#000000" paint-order="fill stroke markers" d=" M 1546.537705078125 1027.3 L 1565.257705078125 1027.3" stroke-miterlimit="10" stroke-dasharray=""/></g><g><path fill="none" stroke="#000000" paint-order="fill stroke markers" d=" M 1555.897705078125 1038.3 L 1542.897705078125 1056" stroke-miterlimit="10" stroke-dasharray=""/></g><g><path fill="none" stroke="#000000" paint-order="fill stroke markers" d=" M 1555.897705078125 1038.3 L 1568.897705078125 1056" stroke-miterlimit="10" stroke-dasharray=""/></g><g><g><path fill="none" stroke="none"/><text fill="#000000" stroke="none" font-family="Arial" font-size="13px" font-style="normal" font-weight="bold" text-decoration="undefined" x="1554.397705078125" y="1060.5" text-anchor="middle" dominant-baseline="central" transform="matrix(1 0 0 1 2 10)">Financier</text></g></g><g><path fill="#C0C0C0" stroke="none" paint-order="stroke fill markers" d=" M 1249 914.5 C 1249 904.835016 1300.487248 897 1364 897 C 1427.512752 897 1479 904.835016 1479 914.5 C 1479 924.164984 1427.512752 932 1364 932 C 1300.487248 932 1249 924.164984 1249 914.5 Z" fill-opacity="0.2"/></g><g><path fill="#ffffff" stroke="none" paint-order="stroke fill markers" d=" M 1242 907.5 C 1242 897.835016 1293.487248 890 1357 890 C 1420.512752 890 1472 897.835016 1472 907.5 C 1472 917.164984 1420.512752 925 1357 925 C 1293.487248 925 1242 917.164984 1242 907.5 Z"/></g><g><path fill="none" stroke="#000000" paint-order="fill stroke markers" d=" M 1242 907.5 C 1242 897.835016 1293.487248 890 1357 890 C 1420.512752 890 1472 897.835016 1472 907.5 C 1472 917.164984 1420.512752 925 1357 925 C 1293.487248 925 1242 917.164984 1242 907.5 Z" stroke-miterlimit="10" stroke-dasharray=""/></g><g><g><path fill="none" stroke="none"/><text fill="#000000" stroke="none" font-family="Arial" font-size="13px" font-style="normal" font-weight="bold" text-decoration="undefined" x="1355" y="898.5" text-anchor="middle" dominant-baseline="central" transform="matrix(1 0 0 1 2 10)">View Transaction history</text></g></g><g><path fill="#C0C0C0" stroke="none" paint-order="stroke fill markers" d=" M 1129 962.5 C 1129 952.835016 1207.5740176 945 1304.5 945 C 1401.4259824 945 1480 952.835016 1480 962.5 C 1480 972.164984 1401.4259824 980 1304.5 980 C 1207.5740176 980 1129 972.164984 1129 962.5 Z" fill-opacity="0.2"/></g><g><path fill="#ffffff" stroke="none" paint-order="stroke fill markers" d=" M 1122 955.5 C 1122 945.835016 1200.5740176 938 1297.5 938 C 1394.4259824 938 1473 945.835016 1473 955.5 C 1473 965.164984 1394.4259824 973 1297.5 973 C 1200.5740176 973 1122 965.164984 1122 955.5 Z"/></g><g><path fill="none" stroke="#000000" paint-order="fill stroke markers" d=" M 1122 955.5 C 1122 945.835016 1200.5740176 938 1297.5 938 C 1394.4259824 938 1473 945.835016 1473 955.5 C 1473 965.164984 1394.4259824 973 1297.5 973 C 1200.5740176 973 1122 965.164984 1122 955.5 Z" stroke-miterlimit="10" stroke-dasharray=""/></g><g><g><path fill="none" stroke="none"/><text fill="#000000" stroke="none" font-family="Arial" font-size="13px" font-style="normal" font-weight="bold" text-decoration="undefined" x="1295.5" y="946.5" text-anchor="middle" dominant-baseline="central" transform="matrix(1 0 0 1 2 10)">Monitor payment process and security</text></g></g><g><path fill="#C0C0C0" stroke="none" paint-order="stroke fill markers" d=" M 1185 1018.5 C 1185 1008.835016 1246.56084 1001 1322.5 1001 C 1398.43916 1001 1460 1008.835016 1460 1018.5 C 1460 1028.164984 1398.43916 1036 1322.5 1036 C 1246.56084 1036 1185 1028.164984 1185 1018.5 Z" fill-opacity="0.2"/></g><g><path fill="#ffffff" stroke="none" paint-order="stroke fill markers" d=" M 1178 1011.5 C 1178 1001.835016 1239.56084 994 1315.5 994 C 1391.43916 994 1453 1001.835016 1453 1011.5 C 1453 1021.164984 1391.43916 1029 1315.5 1029 C 1239.56084 1029 1178 1021.164984 1178 1011.5 Z"/></g><g><path fill="none" stroke="#000000" paint-order="fill stroke markers" d=" M 1178 1011.5 C 1178 1001.835016 1239.56084 994 1315.5 994 C 1391.43916 994 1453 1001.835016 1453 1011.5 C 1453 1021.164984 1391.43916 1029 1315.5 1029 C 1239.56084 1029 1178 1021.164984 1178 1011.5 Z" stroke-miterlimit="10" stroke-dasharray=""/></g><g><g><path fill="none" stroke="none"/><text fill="#000000" stroke="none" font-family="Arial" font-size="13px" font-style="normal" font-weight="bold" text-decoration="undefined" x="1313.5" y="1002.5" text-anchor="middle" dominant-baseline="central" transform="matrix(1 0 0 1 2 10)">communicate payment issues</text></g></g><g><path fill="#C0C0C0" stroke="none" paint-order="stroke fill markers" d=" M 1337 1066.5 C 1337 1056.835016 1372.3695008 1049 1416 1049 C 1459.6304992 1049 1495 1056.835016 1495 1066.5 C 1495 1076.164984 1459.6304992 1084 1416 1084 C 1372.3695008 1084 1337 1076.164984 1337 1066.5 Z" fill-opacity="0.2"/></g><g><path fill="#ffffff" stroke="none" paint-order="stroke fill markers" d=" M 1330 1059.5 C 1330 1049.835016 1365.3695008 1042 1409 1042 C 1452.6304992 1042 1488 1049.835016 1488 1059.5 C 1488 1069.164984 1452.6304992 1077 1409 1077 C 1365.3695008 1077 1330 1069.164984 1330 1059.5 Z"/></g><g><path fill="none" stroke="#000000" paint-order="fill stroke markers" d=" M 1330 1059.5 C 1330 1049.835016 1365.3695008 1042 1409 1042 C 1452.6304992 1042 1488 1049.835016 1488 1059.5 C 1488 1069.164984 1452.6304992 1077 1409 1077 C 1365.3695008 1077 1330 1069.164984 1330 1059.5 Z" stroke-miterlimit="10" stroke-dasharray=""/></g><g><g><path fill="none" stroke="none"/><text fill="#000000" stroke="none" font-family="Arial" font-size="13px" font-style="normal" font-weight="bold" text-decoration="undefined" x="1407" y="1050.5" text-anchor="middle" dominant-baseline="central" transform="matrix(1 0 0 1 2 10)">approve refunds</text></g></g><g><path fill="none" stroke="#000000" paint-order="fill stroke markers" d=" M 1521 1019 L 1385 926" stroke-miterlimit="10" stroke-dasharray=""/></g><g><path fill="none" stroke="#000000" paint-order="fill stroke markers" d=" M 1395.7649729837365 928.2617154240584 L 1385 926 L 1391.0127110826243 935.211259709556" stroke-miterlimit="10" stroke-dasharray=""/></g><g><path fill="none" stroke="#000000" paint-order="fill stroke markers" d=" M 1521 1031 L 1353 974" stroke-miterlimit="10" stroke-dasharray=""/></g><g><path fill="none" stroke="#000000" paint-order="fill stroke markers" d=" M 1363.976339296565 973.2789066310896 L 1353 974 L 1361.2713339602305 981.2515539381802" stroke-miterlimit="10" stroke-dasharray=""/></g><g><path fill="none" stroke="#000000" paint-order="fill stroke markers" d=" M 1521 1038 L 1454 1029" stroke-miterlimit="10" stroke-dasharray=""/></g><g><path fill="none" stroke="#000000" paint-order="fill stroke markers" d=" M 1464.632633151125 1026.1809376960423 L 1454 1029 L 1463.5117850747454 1034.5250289313135" stroke-miterlimit="10" stroke-dasharray=""/></g><g><path fill="none" stroke="#000000" paint-order="fill stroke markers" d=" M 1521 1046 L 1489 1050" stroke-miterlimit="10" stroke-dasharray=""/></g><g><path fill="none" stroke="#000000" paint-order="fill stroke markers" d=" M 1498.5620710118387 1044.5624639803902 L 1489 1050 L 1499.6063238470706 1052.9164866622461" stroke-miterlimit="10" stroke-dasharray=""/></g><g><path fill="#ffffff" stroke="none" paint-order="stroke fill markers" d=" M 1529.254970703125 1315.85 C 1529.254970703125 1310.9622795199998 1533.212773071125 1307 1538.094970703125 1307 C 1542.977168335125 1307 1546.934970703125 1310.9622795199998 1546.934970703125 1315.85 C 1546.934970703125 1320.73772048 1542.977168335125 1324.7 1538.094970703125 1324.7 C 1533.212773071125 1324.7 1529.254970703125 1320.73772048 1529.254970703125 1315.85 Z"/></g><g><path fill="none" stroke="#000000" paint-order="fill stroke markers" d=" M 1529.254970703125 1315.85 C 1529.254970703125 1310.9622795199998 1533.212773071125 1307 1538.094970703125 1307 C 1542.977168335125 1307 1546.934970703125 1310.9622795199998 1546.934970703125 1315.85 C 1546.934970703125 1320.73772048 1542.977168335125 1324.7 1538.094970703125 1324.7 C 1533.212773071125 1324.7 1529.254970703125 1320.73772048 1529.254970703125 1315.85 Z" stroke-miterlimit="10" stroke-dasharray=""/></g><g><path fill="none" stroke="#000000" paint-order="fill stroke markers" d=" M 1538.094970703125 1324.7 L 1538.094970703125 1342.3" stroke-miterlimit="10" stroke-dasharray=""/></g><g><path fill="none" stroke="#000000" paint-order="fill stroke markers" d=" M 1528.734970703125 1331.3 L 1547.454970703125 1331.3" stroke-miterlimit="10" stroke-dasharray=""/></g><g><path fill="none" stroke="#000000" paint-order="fill stroke markers" d=" M 1538.094970703125 1342.3 L 1525.094970703125 1360" stroke-miterlimit="10" stroke-dasharray=""/></g><g><path fill="none" stroke="#000000" paint-order="fill stroke markers" d=" M 1538.094970703125 1342.3 L 1551.094970703125 1360" stroke-miterlimit="10" stroke-dasharray=""/></g><g><g><path fill="none" stroke="none"/><text fill="#000000" stroke="none" font-family="Arial" font-size="13px" font-style="normal" font-weight="bold" text-decoration="undefined" x="1536.594970703125" y="1364.5" text-anchor="middle" dominant-baseline="central" transform="matrix(1 0 0 1 2 10)">Manager</text></g></g><g><path fill="#ffffff" stroke="none" paint-order="stroke fill markers" d=" M 733.16 1459.85 C 733.16 1454.9622795199998 737.117802368 1451 742 1451 C 746.882197632 1451 750.84 1454.9622795199998 750.84 1459.85 C 750.84 1464.73772048 746.882197632 1468.7 742 1468.7 C 737.117802368 1468.7 733.16 1464.73772048 733.16 1459.85 Z"/></g><g><path fill="none" stroke="#000000" paint-order="fill stroke markers" d=" M 733.16 1459.85 C 733.16 1454.9622795199998 737.117802368 1451 742 1451 C 746.882197632 1451 750.84 1454.9622795199998 750.84 1459.85 C 750.84 1464.73772048 746.882197632 1468.7 742 1468.7 C 737.117802368 1468.7 733.16 1464.73772048 733.16 1459.85 Z" stroke-miterlimit="10" stroke-dasharray=""/></g><g><path fill="none" stroke="#000000" paint-order="fill stroke markers" d=" M 742 1468.7 L 742 1486.3" stroke-miterlimit="10" stroke-dasharray=""/></g><g><path fill="none" stroke="#000000" paint-order="fill stroke markers" d=" M 732.64 1475.3 L 751.36 1475.3" stroke-miterlimit="10" stroke-dasharray=""/></g><g><path fill="none" stroke="#000000" paint-order="fill stroke markers" d=" M 742 1486.3 L 729 1504" stroke-miterlimit="10" stroke-dasharray=""/></g><g><path fill="none" stroke="#000000" paint-order="fill stroke markers" d=" M 742 1486.3 L 755 1504" stroke-miterlimit="10" stroke-dasharray=""/></g><g><g><path fill="none" stroke="none"/><text fill="#000000" stroke="none" font-family="Arial" font-size="13px" font-style="normal" font-weight="bold" text-decoration="undefined" x="740.5" y="1508.5" text-anchor="middle" dominant-baseline="central" transform="matrix(1 0 0 1 2 10)">User</text></g></g><g><path fill="#C0C0C0" stroke="none" paint-order="stroke fill markers" d=" M 705 1338.5 C 705 1328.835016 741.4887888 1321 786.5 1321 C 831.5112112 1321 868 1328.835016 868 1338.5 C 868 1348.164984 831.5112112 1356 786.5 1356 C 741.4887888 1356 705 1348.164984 705 1338.5 Z" fill-opacity="0.2"/></g><g><path fill="#ffffff" stroke="none" paint-order="stroke fill markers" d=" M 698 1331.5 C 698 1321.835016 734.4887888 1314 779.5 1314 C 824.5112112 1314 861 1321.835016 861 1331.5 C 861 1341.164984 824.5112112 1349 779.5 1349 C 734.4887888 1349 698 1341.164984 698 1331.5 Z"/></g><g><path fill="none" stroke="#000000" paint-order="fill stroke markers" d=" M 698 1331.5 C 698 1321.835016 734.4887888 1314 779.5 1314 C 824.5112112 1314 861 1321.835016 861 1331.5 C 861 1341.164984 824.5112112 1349 779.5 1349 C 734.4887888 1349 698 1341.164984 698 1331.5 Z" stroke-miterlimit="10" stroke-dasharray=""/></g><g><g><path fill="none" stroke="none"/><text fill="#000000" stroke="none" font-family="Arial" font-size="13px" font-style="normal" font-weight="bold" text-decoration="undefined" x="777.5" y="1322.5" text-anchor="middle" dominant-baseline="central" transform="matrix(1 0 0 1 2 10)">Register account</text></g></g><g><path fill="#C0C0C0" stroke="none" paint-order="stroke fill markers" d=" M 641 1282.5 C 641 1272.835016 663.8334752 1265 692 1265 C 720.1665248 1265 743 1272.835016 743 1282.5 C 743 1292.164984 720.1665248 1300 692 1300 C 663.8334752 1300 641 1292.164984 641 1282.5 Z" fill-opacity="0.2"/></g><g><path fill="#ffffff" stroke="none" paint-order="stroke fill markers" d=" M 634 1275.5 C 634 1265.835016 656.8334752 1258 685 1258 C 713.1665248 1258 736 1265.835016 736 1275.5 C 736 1285.164984 713.1665248 1293 685 1293 C 656.8334752 1293 634 1285.164984 634 1275.5 Z"/></g><g><path fill="none" stroke="#000000" paint-order="fill stroke markers" d=" M 634 1275.5 C 634 1265.835016 656.8334752 1258 685 1258 C 713.1665248 1258 736 1265.835016 736 1275.5 C 736 1285.164984 713.1665248 1293 685 1293 C 656.8334752 1293 634 1285.164984 634 1275.5 Z" stroke-miterlimit="10" stroke-dasharray=""/></g><g><g><path fill="none" stroke="none"/><text fill="#000000" stroke="none" font-family="Arial" font-size="13px" font-style="normal" font-weight="bold" text-decoration="undefined" x="683" y="1266.5" text-anchor="middle" dominant-baseline="central" transform="matrix(1 0 0 1 2 10)">Log In</text></g></g><g><path fill="none" stroke="#000000" paint-order="fill stroke markers" d=" M 752 1449 L 775 1350" stroke-miterlimit="10" stroke-dasharray=""/></g><g><path fill="none" stroke="#000000" paint-order="fill stroke markers" d=" M 776.8005395937627 1360.8516384556108 L 775 1350 L 768.5999066175973 1358.9464408954916" stroke-miterlimit="10" stroke-dasharray=""/></g><g><path fill="none" stroke="#000000" paint-order="fill stroke markers" d=" M 731 1449 L 690 1294" stroke-miterlimit="10" stroke-dasharray=""/></g><g><path fill="none" stroke="#000000" paint-order="fill stroke markers" d=" M 696.6683644216309 1302.7483093189671 L 690 1294 L 688.5292568585992 1304.9012345453175" stroke-miterlimit="10" stroke-dasharray=""/></g><g><path fill="#C0C0C0" stroke="none" paint-order="stroke fill markers" d=" M 1233 1202.5 C 1233 1192.835016 1284.487248 1185 1348 1185 C 1411.512752 1185 1463 1192.835016 1463 1202.5 C 1463 1212.164984 1411.512752 1220 1348 1220 C 1284.487248 1220 1233 1212.164984 1233 1202.5 Z" fill-opacity="0.2"/></g><g><path fill="#ffffff" stroke="none" paint-order="stroke fill markers" d=" M 1226 1195.5 C 1226 1185.835016 1277.487248 1178 1341 1178 C 1404.512752 1178 1456 1185.835016 1456 1195.5 C 1456 1205.164984 1404.512752 1213 1341 1213 C 1277.487248 1213 1226 1205.164984 1226 1195.5 Z"/></g><g><path fill="none" stroke="#000000" paint-order="fill stroke markers" d=" M 1226 1195.5 C 1226 1185.835016 1277.487248 1178 1341 1178 C 1404.512752 1178 1456 1185.835016 1456 1195.5 C 1456 1205.164984 1404.512752 1213 1341 1213 C 1277.487248 1213 1226 1205.164984 1226 1195.5 Z" stroke-miterlimit="10" stroke-dasharray=""/></g><g><g><path fill="none" stroke="none"/><text fill="#000000" stroke="none" font-family="Arial" font-size="13px" font-style="normal" font-weight="bold" text-decoration="undefined" x="1339" y="1186.5" text-anchor="middle" dominant-baseline="central" transform="matrix(1 0 0 1 2 10)">Monitor Rental Requests</text></g></g><g><path fill="#C0C0C0" stroke="none" paint-order="stroke fill markers" d=" M 1025 1250.5 C 1025 1240.835016 1086.56084 1233 1162.5 1233 C 1238.43916 1233 1300 1240.835016 1300 1250.5 C 1300 1260.164984 1238.43916 1268 1162.5 1268 C 1086.56084 1268 1025 1260.164984 1025 1250.5 Z" fill-opacity="0.2"/></g><g><path fill="#ffffff" stroke="none" paint-order="stroke fill markers" d=" M 1018 1243.5 C 1018 1233.835016 1079.56084 1226 1155.5 1226 C 1231.43916 1226 1293 1233.835016 1293 1243.5 C 1293 1253.164984 1231.43916 1261 1155.5 1261 C 1079.56084 1261 1018 1253.164984 1018 1243.5 Z"/></g><g><path fill="none" stroke="#000000" paint-order="fill stroke markers" d=" M 1018 1243.5 C 1018 1233.835016 1079.56084 1226 1155.5 1226 C 1231.43916 1226 1293 1233.835016 1293 1243.5 C 1293 1253.164984 1231.43916 1261 1155.5 1261 C 1079.56084 1261 1018 1253.164984 1018 1243.5 Z" stroke-miterlimit="10" stroke-dasharray=""/></g><g><g><path fill="none" stroke="none"/><text fill="#000000" stroke="none" font-family="Arial" font-size="13px" font-style="normal" font-weight="bold" text-decoration="undefined" x="1153.5" y="1234.5" text-anchor="middle" dominant-baseline="central" transform="matrix(1 0 0 1 2 10)">Generate Managment Reports</text></g></g><g><path fill="#C0C0C0" stroke="none" paint-order="stroke fill markers" d=" M 961 1306.5 C 961 1296.835016 1045.8420304 1289 1150.5 1289 C 1255.1579696 1289 1340 1296.835016 1340 1306.5 C 1340 1316.164984 1255.1579696 1324 1150.5 1324 C 1045.8420304 1324 961 1316.164984 961 1306.5 Z" fill-opacity="0.2"/></g><g><path fill="#ffffff" stroke="none" paint-order="stroke fill markers" d=" M 954 1299.5 C 954 1289.835016 1038.8420304 1282 1143.5 1282 C 1248.1579696 1282 1333 1289.835016 1333 1299.5 C 1333 1309.164984 1248.1579696 1317 1143.5 1317 C 1038.8420304 1317 954 1309.164984 954 1299.5 Z"/></g><g><path fill="none" stroke="#000000" paint-order="fill stroke markers" d=" M 954 1299.5 C 954 1289.835016 1038.8420304 1282 1143.5 1282 C 1248.1579696 1282 1333 1289.835016 1333 1299.5 C 1333 1309.164984 1248.1579696 1317 1143.5 1317 C 1038.8420304 1317 954 1309.164984 954 1299.5 Z" stroke-miterlimit="10" stroke-dasharray=""/></g><g><g><path fill="none" stroke="none"/><text fill="#000000" stroke="none" font-family="Arial" font-size="13px" font-style="normal" font-weight="bold" text-decoration="undefined" x="1141.5" y="1290.5" text-anchor="middle" dominant-baseline="central" transform="matrix(1 0 0 1 2 10)">Approve Large discounts and promotions</text></g></g><g><path fill="#C0C0C0" stroke="none" paint-order="stroke fill markers" d=" M 953 1362.5 C 953 1352.835016 1054.855208 1345 1180.5 1345 C 1306.144792 1345 1408 1352.835016 1408 1362.5 C 1408 1372.164984 1306.144792 1380 1180.5 1380 C 1054.855208 1380 953 1372.164984 953 1362.5 Z" fill-opacity="0.2"/></g><g><path fill="#ffffff" stroke="none" paint-order="stroke fill markers" d=" M 946 1355.5 C 946 1345.835016 1047.855208 1338 1173.5 1338 C 1299.144792 1338 1401 1345.835016 1401 1355.5 C 1401 1365.164984 1299.144792 1373 1173.5 1373 C 1047.855208 1373 946 1365.164984 946 1355.5 Z"/></g><g><path fill="none" stroke="#000000" paint-order="fill stroke markers" d=" M 946 1355.5 C 946 1345.835016 1047.855208 1338 1173.5 1338 C 1299.144792 1338 1401 1345.835016 1401 1355.5 C 1401 1365.164984 1299.144792 1373 1173.5 1373 C 1047.855208 1373 946 1365.164984 946 1355.5 Z" stroke-miterlimit="10" stroke-dasharray=""/></g><g><g><path fill="none" stroke="none"/><text fill="#000000" stroke="none" font-family="Arial" font-size="13px" font-style="normal" font-weight="bold" text-decoration="undefined" x="1171.5" y="1346.5" text-anchor="middle" dominant-baseline="central" transform="matrix(1 0 0 1 2 10)">Review complaints and forward unresolved issues</text></g></g><g><path fill="none" stroke="#000000" paint-order="fill stroke markers" d=" M 1505 1347 L 1402 1349" stroke-miterlimit="10" stroke-dasharray=""/></g><g><path fill="none" stroke="#000000" paint-order="fill stroke markers" d=" M 1412.0790367360785 1344.5939792927427 L 1402 1349 L 1412.2424823440595 1353.0114281037595" stroke-miterlimit="10" stroke-dasharray=""/></g><g><path fill="none" stroke="#000000" paint-order="fill stroke markers" d=" M 1505 1342 L 1303 1318" stroke-miterlimit="10" stroke-dasharray=""/></g><g><path fill="none" stroke="#000000" paint-order="fill stroke markers" d=" M 1313.5883435550131 1315.018896049949 L 1303 1318 L 1312.595048347786 1323.3791307107797" stroke-miterlimit="10" stroke-dasharray=""/></g><g><path fill="none" stroke="#000000" paint-order="fill stroke markers" d=" M 1505 1337 L 1226 1262" stroke-miterlimit="10" stroke-dasharray=""/></g><g><path fill="none" stroke="#000000" paint-order="fill stroke markers" d=" M 1236.907052443634 1260.5730427505289 L 1226 1262 L 1234.7214618932153 1268.7034395980866" stroke-miterlimit="10" stroke-dasharray=""/></g><g><path fill="none" stroke="#000000" paint-order="fill stroke markers" d=" M 1505 1321 L 1366 1214" stroke-miterlimit="10" stroke-dasharray=""/></g><g><path fill="none" stroke="#000000" paint-order="fill stroke markers" d=" M 1376.6207735215426 1216.863419250494 L 1366 1214 L 1371.485277809125 1223.5347641479336" stroke-miterlimit="10" stroke-dasharray=""/></g><g><path fill="#C0C0C0" stroke="none" paint-order="stroke fill markers" d=" M 897 522.5 C 897 512.835016 956.322264 505 1029.5 505 C 1102.677736 505 1162 512.835016 1162 522.5 C 1162 532.164984 1102.677736 540 1029.5 540 C 956.322264 540 897 532.164984 897 522.5 Z" fill-opacity="0.2"/></g><g><path fill="#ffffff" stroke="none" paint-order="stroke fill markers" d=" M 890 515.5 C 890 505.835016 949.322264 498 1022.5 498 C 1095.677736 498 1155 505.835016 1155 515.5 C 1155 525.164984 1095.677736 533 1022.5 533 C 949.322264 533 890 525.164984 890 515.5 Z"/></g><g><path fill="none" stroke="#000000" paint-order="fill stroke markers" d=" M 890 515.5 C 890 505.835016 949.322264 498 1022.5 498 C 1095.677736 498 1155 505.835016 1155 515.5 C 1155 525.164984 1095.677736 533 1022.5 533 C 949.322264 533 890 525.164984 890 515.5 Z" stroke-miterlimit="10" stroke-dasharray=""/></g><g><g><path fill="none" stroke="none"/><text fill="#000000" stroke="none" font-family="Arial" font-size="13px" font-style="normal" font-weight="bold" text-decoration="undefined" x="1020.5" y="506.5" text-anchor="middle" dominant-baseline="central" transform="matrix(1 0 0 1 2 10)">Update Personal Information</text></g></g><g><path fill="none" stroke="#000000" paint-order="fill stroke markers" d=" M 1513 309 L 1065 497" stroke-miterlimit="10" stroke-dasharray=""/></g><g><path fill="none" stroke="#000000" paint-order="fill stroke markers" d=" M 1072.7421152744953 489.1859324883626 L 1065 497 L 1075.999882337452 496.94912208519526" stroke-miterlimit="10" stroke-dasharray=""/></g><g><path fill="#C0C0C0" stroke="none" paint-order="stroke fill markers" d=" M 161 1338.5 C 161 1328.835016 207.1146656 1321 264 1321 C 320.88533440000003 1321 367 1328.835016 367 1338.5 C 367 1348.164984 320.88533440000003 1356 264 1356 C 207.1146656 1356 161 1348.164984 161 1338.5 Z" fill-opacity="0.2"/></g><g><path fill="#ffffff" stroke="none" paint-order="stroke fill markers" d=" M 154 1331.5 C 154 1321.835016 200.1146656 1314 257 1314 C 313.88533440000003 1314 360 1321.835016 360 1331.5 C 360 1341.164984 313.88533440000003 1349 257 1349 C 200.1146656 1349 154 1341.164984 154 1331.5 Z"/></g><g><path fill="none" stroke="#000000" paint-order="fill stroke markers" d=" M 154 1331.5 C 154 1321.835016 200.1146656 1314 257 1314 C 313.88533440000003 1314 360 1321.835016 360 1331.5 C 360 1341.164984 313.88533440000003 1349 257 1349 C 200.1146656 1349 154 1341.164984 154 1331.5 Z" stroke-miterlimit="10" stroke-dasharray=""/></g><g><g><path fill="none" stroke="none"/><text fill="#000000" stroke="none" font-family="Arial" font-size="13px" font-style="normal" font-weight="bold" text-decoration="undefined" x="255" y="1322.5" text-anchor="middle" dominant-baseline="central" transform="matrix(1 0 0 1 2 10)">delete property listing</text></g></g><g><path fill="none" stroke="#000000" paint-order="fill stroke markers" d=" M 97 1011 L 248 1313" stroke-miterlimit="10" stroke-dasharray=""/></g><g><path fill="none" stroke="#000000" paint-order="fill stroke markers" d=" M 239.69000649504721 1305.7927808450386 L 248 1313 L 247.22022077900252 1302.0276737030608" stroke-miterlimit="10" stroke-dasharray=""/></g><g><path fill="none" stroke="#000000" paint-order="fill stroke markers" d=" M 81 371 L 718 1449" stroke-miterlimit="10" stroke-dasharray=""/></g><g><path fill="#FFFFFF" stroke="none" paint-order="stroke fill markers" d=" M 700.4117278063416 1435.7843773797154 L 718 1449 L 714.9080698349151 1427.2183570901036"/></g><g><path fill="none" stroke="#000000" paint-order="fill stroke markers" d=" M 700.4117278063416 1435.7843773797154 L 718 1449 L 714.9080698349151 1427.2183570901036 L 700.4117278063416 1435.7843773797154" stroke-miterlimit="10" stroke-dasharray=""/></g><g><path fill="none" stroke="#000000" paint-order="fill stroke markers" d=" M 127 1002 L 713 1467" stroke-miterlimit="10" stroke-dasharray=""/></g><g><path fill="#FFFFFF" stroke="none" paint-order="stroke fill markers" d=" M 691.8451175937071 1460.960881655745 L 713 1467 L 702.311540728917 1447.7709376616956"/></g><g><path fill="none" stroke="#000000" paint-order="fill stroke markers" d=" M 691.8451175937071 1460.960881655745 L 713 1467 L 702.311540728917 1447.7709376616956 L 691.8451175937071 1460.960881655745" stroke-miterlimit="10" stroke-dasharray=""/></g><g><path fill="none" stroke="#000000" paint-order="fill stroke markers" d=" M 1505 1352 L 771 1485" stroke-miterlimit="10" stroke-dasharray=""/></g><g><path fill="#FFFFFF" stroke="none" paint-order="stroke fill markers" d=" M 789.4985995861384 1473.0919433427734 L 771 1485 L 792.5007528228916 1489.6602175967346"/></g><g><path fill="none" stroke="#000000" paint-order="fill stroke markers" d=" M 789.4985995861384 1473.0919433427734 L 771 1485 L 792.5007528228916 1489.6602175967346 L 789.4985995861384 1473.0919433427734" stroke-miterlimit="10" stroke-dasharray=""/></g><g><path fill="none" stroke="#000000" paint-order="fill stroke markers" d=" M 1537 754 L 771 1463" stroke-miterlimit="10" stroke-dasharray=""/></g><g><path fill="#FFFFFF" stroke="none" paint-order="stroke fill markers" d=" M 780.1976245659041 1443.0149130013233 L 771 1463 L 791.6352932407262 1455.3721121619915"/></g><g><path fill="none" stroke="#000000" paint-order="fill stroke markers" d=" M 780.1976245659041 1443.0149130013233 L 771 1463 L 791.6352932407262 1455.3721121619915 L 780.1976245659041 1443.0149130013233" stroke-miterlimit="10" stroke-dasharray=""/></g><g><path fill="none" stroke="#000000" paint-order="fill stroke markers" d=" M 1521 1061 L 771 1474" stroke-miterlimit="10" stroke-dasharray=""/></g><g><path fill="#FFFFFF" stroke="none" paint-order="stroke fill markers" d=" M 784.7433150939098 1456.820905430451 L 771 1474 L 792.8654455636602 1471.5705370341138"/></g><g><path fill="none" stroke="#000000" paint-order="fill stroke markers" d=" M 784.7433150939098 1456.820905430451 L 771 1474 L 792.8654455636602 1471.5705370341138 L 784.7433150939098 1456.820905430451" stroke-miterlimit="10" stroke-dasharray=""/></g><g><path fill="none" stroke="#000000" paint-order="fill stroke markers" d=" M 1513 337 L 769 1449" stroke-miterlimit="10" stroke-dasharray=""/></g><g><path fill="#FFFFFF" stroke="none" paint-order="stroke fill markers" d=" M 773.3051992160671 1427.42535609309 L 769 1449 L 787.2998125683013 1436.7886585517788"/></g><g><path fill="none" stroke="#000000" paint-order="fill stroke markers" d=" M 773.3051992160671 1427.42535609309 L 769 1449 L 787.2998125683013 1436.7886585517788 L 773.3051992160671 1427.42535609309" stroke-miterlimit="10" stroke-dasharray=""/></g><g><path fill="#C0C0C0" stroke="none" paint-order="stroke fill markers" d=" M 537 1330.5 C 537 1320.835016 559.8334752 1313 588 1313 C 616.1665248 1313 639 1320.835016 639 1330.5 C 639 1340.164984 616.1665248 1348 588 1348 C 559.8334752 1348 537 1340.164984 537 1330.5 Z" fill-opacity="0.2"/></g><g><path fill="#ffffff" stroke="none" paint-order="stroke fill markers" d=" M 530 1323.5 C 530 1313.835016 552.8334752 1306 581 1306 C 609.1665248 1306 632 1313.835016 632 1323.5 C 632 1333.164984 609.1665248 1341 581 1341 C 552.8334752 1341 530 1333.164984 530 1323.5 Z"/></g><g><path fill="none" stroke="#000000" paint-order="fill stroke markers" d=" M 530 1323.5 C 530 1313.835016 552.8334752 1306 581 1306 C 609.1665248 1306 632 1313.835016 632 1323.5 C 632 1333.164984 609.1665248 1341 581 1341 C 552.8334752 1341 530 1333.164984 530 1323.5 Z" stroke-miterlimit="10" stroke-dasharray=""/></g><g><g><path fill="none" stroke="none"/><text fill="#000000" stroke="none" font-family="Arial" font-size="13px" font-style="normal" font-weight="bold" text-decoration="undefined" x="579" y="1314.5" text-anchor="middle" dominant-baseline="central" transform="matrix(1 0 0 1 2 10)">Log Out</text></g></g><g><path fill="none" stroke="#000000" paint-order="fill stroke markers" d=" M 713 1460 L 599 1342" stroke-miterlimit="10" stroke-dasharray=""/></g><g><path fill="none" stroke="#000000" paint-order="fill stroke markers" d=" M 609.0885975824094 1346.3840847186389 L 599 1342 L 603.0336997293381 1352.2337317970298" stroke-miterlimit="10" stroke-dasharray=""/></g><g><path fill="none" stroke="#000000" paint-order="fill stroke markers" d=" M 127 911 L 974 190" stroke-miterlimit="10" stroke-dasharray=""/></g><g><path fill="none" stroke="#000000" paint-order="fill stroke markers" d=" M 968.989988200681 199.79284339559678 L 974 190 L 963.5328007107524 193.38197265500125" stroke-miterlimit="10" stroke-dasharray=""/></g><g><path fill="none" stroke="#000000" paint-order="fill stroke markers" d=" M 127 918 L 989 294" stroke-miterlimit="10" stroke-dasharray=""/></g><g><path fill="none" stroke="#000000" paint-order="fill stroke markers" d=" M 983.2362695960139 303.3690667534268 L 989 294 L 978.2994965116729 296.54935778114793" stroke-miterlimit="10" stroke-dasharray=""/></g><g><path fill="none" stroke="#000000" paint-order="fill stroke markers" d=" M 127 929 L 1034 454" stroke-miterlimit="10" stroke-dasharray=""/></g><g><path fill="none" stroke="#000000" paint-order="fill stroke markers" d=" M 1026.95013201488 462.4438949183644 L 1034 454 L 1023.0442551848496 454.98572589765377" stroke-miterlimit="10" stroke-dasharray=""/></g><g><path fill="none" stroke="#000000" paint-order="fill stroke markers" d=" M 1513 312 L 360 953" stroke-miterlimit="10" stroke-dasharray=""/></g><g><path fill="none" stroke="#000000" paint-order="fill stroke markers" d=" M 366.8369160893356 944.3827743218955 L 360 953 L 370.9277284411752 951.7411310171701" stroke-miterlimit="10" stroke-dasharray=""/></g><g><path fill="none" stroke="#000000" paint-order="fill stroke markers" d=" M 1513 313 L 357 1001" stroke-miterlimit="10" stroke-dasharray=""/></g><g><path fill="none" stroke="#000000" paint-order="fill stroke markers" d=" M 363.58015006277435 992.1851474685409 L 357 1001 L 367.88591073076697 999.4198267304587" stroke-miterlimit="10" stroke-dasharray=""/></g><g><path fill="none" stroke="#000000" paint-order="fill stroke markers" d=" M 1513 315 L 333 1073" stroke-miterlimit="10" stroke-dasharray=""/></g><g><path fill="none" stroke="#000000" paint-order="fill stroke markers" d=" M 339.27539136957387 1063.9656509277825 L 333 1073 L 343.82562128459665 1071.0491222994538" stroke-miterlimit="10" stroke-dasharray=""/></g><g><path fill="none" stroke="#000000" paint-order="fill stroke markers" d=" M 1513 316 L 318 1137" stroke-miterlimit="10" stroke-dasharray=""/></g><g><path fill="none" stroke="#000000" paint-order="fill stroke markers" d=" M 323.9926063779297 1127.7756480553269 L 318 1137 L 328.76001441894556 1134.7148107946862" stroke-miterlimit="10" stroke-dasharray=""/></g><g><path fill="none" stroke="#000000" paint-order="fill stroke markers" d=" M 95 905 L 414 214" stroke-miterlimit="10" stroke-dasharray=""/></g><g><path fill="none" stroke="#000000" paint-order="fill stroke markers" d=" M 413.5623104922615 224.99128872766136 L 414 214 L 405.9184919877153 221.4625215743325" stroke-miterlimit="10" stroke-dasharray=""/></g><g><path fill="none" stroke="#000000" paint-order="fill stroke markers" d=" M 87 905 L 310 158" stroke-miterlimit="10" stroke-dasharray=""/></g><g><path fill="none" stroke="#000000" paint-order="fill stroke markers" d=" M 311.1265531584006 168.9421605719025 L 310 158 L 303.0593174364479 166.53386931889654" stroke-miterlimit="10" stroke-dasharray=""/></g><g><path fill="none" stroke="#000000" paint-order="fill stroke markers" d=" M 100 905 L 373 414" stroke-miterlimit="10" stroke-dasharray=""/></g><g><path fill="none" stroke="#000000" paint-order="fill stroke markers" d=" M 371.74057071020894 424.92766387953145 L 373 414 L 364.38242377701977 420.83647424050775" stroke-miterlimit="10" stroke-dasharray=""/></g><g><path fill="none" stroke="#000000" paint-order="fill stroke markers" d=" M 127 968 L 1245 1177" stroke-miterlimit="10" stroke-dasharray=""/></g><g><path fill="none" stroke="#000000" paint-order="fill stroke markers" d=" M 1234.2368483381808 1179.2703669977955 L 1245 1177 L 1235.7839105730652 1170.9946943729117" stroke-miterlimit="10" stroke-dasharray=""/></g><g><path fill="none" stroke="#000000" paint-order="fill stroke markers" d=" M 1530 339 L 1345 1177" stroke-miterlimit="10" stroke-dasharray=""/></g><g><path fill="none" stroke="#000000" paint-order="fill stroke markers" d=" M 1343.0802565814931 1166.1688142289452 L 1345 1177 L 1351.3013413176398 1167.9837315036316" stroke-miterlimit="10" stroke-dasharray=""/></g><g><path fill="none" stroke="#000000" paint-order="fill stroke markers" d=" M 127 976 L 1086 1281" stroke-miterlimit="10" stroke-dasharray=""/></g><g><path fill="none" stroke="#000000" paint-order="fill stroke markers" d=" M 1075.0395041341799 1281.931413106705 L 1086 1281 L 1077.5911505242746 1273.9083675719485" stroke-miterlimit="10" stroke-dasharray=""/></g><g><path fill="none" stroke="#000000" paint-order="fill stroke markers" d=" M 102 371 L 1153 1337" stroke-miterlimit="10" stroke-dasharray=""/></g><g><path fill="none" stroke="#000000" paint-order="fill stroke markers" d=" M 1142.6690979237985 1333.222108750647 L 1153 1337 L 1148.3663216071466 1327.023576565141" stroke-miterlimit="10" stroke-dasharray=""/></g><g><path fill="none" stroke="#000000" paint-order="fill stroke markers" d=" M 127 956 L 1241 912" stroke-miterlimit="10" stroke-dasharray=""/></g><g><path fill="none" stroke="#000000" paint-order="fill stroke markers" d=" M 1231.0113780324234 916.6073236470695 L 1241 912 L 1230.6791078780536 908.1948474659816" stroke-miterlimit="10" stroke-dasharray=""/></g><g><path fill="none" stroke="#000000" paint-order="fill stroke markers" d=" M 1527 339 L 1362 889" stroke-miterlimit="10" stroke-dasharray=""/></g><g><path fill="none" stroke="#000000" paint-order="fill stroke markers" d=" M 1360.8882363772193 878.0563268667663 L 1362 889 L 1368.9522098868538 880.4755189196567" stroke-miterlimit="10" stroke-dasharray=""/></g><g><path fill="none" stroke="#000000" paint-order="fill stroke markers" d=" M 127 960 L 1177 1005" stroke-miterlimit="10" stroke-dasharray=""/></g><g><path fill="none" stroke="#000000" paint-order="fill stroke markers" d=" M 1166.6664029230053 1008.7705134199903 L 1177 1005 L 1167.0268878249776 1000.3591990406376" stroke-miterlimit="10" stroke-dasharray=""/></g><g><path fill="none" stroke="#000000" paint-order="fill stroke markers" d=" M 1526 339 L 1321 993" stroke-miterlimit="10" stroke-dasharray=""/></g><g><path fill="none" stroke="#000000" paint-order="fill stroke markers" d=" M 1320.0229075133657 982.043481836251 L 1321 993 L 1328.056519568635 984.5616629850739" stroke-miterlimit="10" stroke-dasharray=""/></g></g></svg>